<?xml version="1.0" encoding="UTF-8"?>
<svg id="Layer_2" data-name="Layer 2" xmlns="http://www.w3.org/2000/svg" viewBox="0 0 1024 1024">
  <defs>
    <style>
      .cls-1 {
        fill: #f7bab0;
      }

      .cls-1, .cls-2, .cls-3, .cls-4, .cls-5, .cls-6, .cls-7, .cls-8, .cls-9, .cls-10, .cls-11, .cls-12, .cls-13, .cls-14, .cls-15, .cls-16 {
        stroke-width: 0px;
      }

      .cls-2 {
        fill: #fad8de;
      }

      .cls-3 {
        fill: #f9f3de;
      }

      .cls-4 {
        fill: #290c0d;
      }

      .cls-5 {
        fill: #080808;
      }

      .cls-6 {
        fill: #210d0b;
      }

      .cls-7 {
        fill: #180604;
      }

      .cls-8 {
        fill: #c9f0b3;
      }

      .cls-9 {
        fill: #e28f99;
      }

      .cls-10 {
        fill: #d5ca72;
      }

      .cls-11 {
        fill: #cee19a;
      }

      .cls-12 {
        fill: #b7cc89;
      }

      .cls-13 {
        fill: #e9b7c0;
      }

      .cls-14 {
        fill: #faf6a9;
      }

      .cls-15 {
        fill: #fbfbfb;
      }

      .cls-16 {
        fill: #fcfcfc;
      }
    </style>
  </defs>
  <g id="Layer_1-2" data-name="Layer 1">
    <g>
      <path class="cls-15" d="M512,1023.91c-169.14,0-338.27-.01-507.41.09-3.75,0-4.59-.84-4.59-4.59C.1,681.14.1,342.86,0,4.59,0,.84.84,0,4.59,0c338.27.1,676.54.1,1014.82,0,3.75,0,4.59.84,4.59,4.59-.1,338.27-.1,676.54,0,1014.81,0,3.75-.84,4.6-4.59,4.59-169.14-.11-338.27-.09-507.41-.09ZM246.74,609.24c-2.56,1.29-5.13,2.59-7.69,3.88-5.21,1.88-10.42,3.76-15.63,5.64-7,2.53-14.29,4.39-20.82,8.04-7.46,4.16-7.84,11.76-1.11,16.91,1.28.98,3.14,1.28,3.7,3.11.15,2.97,2.33,4.37,4.6,5.37,4.71,2.06,9.44,4.17,14.34,5.67,16.05,4.9,32.58,7.57,49.09,10.45,25.06,4.37,50.32,6.48,75.66,7.39,16.09.58,32.23.44,48.38-.51,19.75-1.16,39.34-3.13,58.63-7.4,9.35-2.07,18.94-3.86,27.16-9.34,3.75-2.5,3.85-5.03.3-7.75-1.43-1.09-3.17-1.78-4.76-2.65-5.19-2.84-11.31-1.97-16.66-4.18,1.48-1.33,2.95-2.66,4.43-3.99,27.03-24.37,44.47-53.86,46.73-90.79,1.93-31.44-6.8-59.29-30.66-81.18-1.73-1.59-1.84-3.35-1.82-5.38.06-8.51.88-16.95,2.06-25.37.44-3.11,1.53-5.5,3.64-7.89,7.82-8.85,4.32-24.26-6.19-28.2-5.98-2.24-12.96-.76-17.09,3.63-4.81,5.11-5.98,13.31-2.85,20.06.82,1.77,2.17,3.25,1.64,5.55-1.28,5.52-2.52,11.02-4.93,16.2-2.15,4.62-5.35,6.21-10.47,5.09-10.43-2.29-21.01-3.17-31.73-3-4.8.08-10.43,3.2-14.26-.52-3.47-3.36-4.06-8.97-5.73-13.68-1.09-3.08-1.06-5.38,1.24-8.16,5.52-6.69,4.1-17.39-2.62-23.5-6.35-5.77-16.29-5.86-22.31-.19-5.92,5.59-6.95,16.97-1.58,23.34,2.43,2.88,3.61,5.83,3.87,9.41.26,3.65.26,7.37,1,10.93,1.67,8.05-.45,13.68-8.65,16.69-2.16.79-3.32.94-5.25-.37-30.35-20.65-62.3-23.06-94.95-6.53-31.81,16.1-47.77,42.86-48.75,78.39-.49,17.87,3.54,34.66,13.99,49.54.45.68.9,1.36,1.35,2.04,3.76,6.14,8.77,10.99,15,14.6,1.64,1.98,4.77,1.91,6.05,4.39l-6.35,4.24ZM231.05,146.91c-.44-2.81-1.92-5.96,2.91-6.84-2.38-1.75-4.33-1.88-6.49-1-1.79.73-3.26,2.08-1.81,3.58,1.49,1.55,2.06,4.22,4.72,4.56-2.66,3-3.6,6.45-1.86,10.12,1.73,3.66,5.33,3.45,8.69,3.46,1.5,0,3.01.14,4.49-.04,2.92-.36,3.55.95,3.53,3.67-.11,13.82-.05,27.63.02,41.45,0,1.75-.25,3.22-1.62,4.48-7.3,6.75-15.18,12.48-25.24,14.33-9.58,1.76-16.25-2.69-18.54-12.15-.75-3.11-.89-6.25-.9-9.41-.01-16.65-.08-33.29.02-49.94.02-4.28-1.71-6.74-6.02-6.85-5.16-.13-10.33-.18-15.48.07-4.89.24-7.41,3.59-6.8,8.45.67,5.38,4.6,6.16,8.82,5.76,3.83-.36,4.69.93,4.63,4.62-.23,13.15-.05,26.3-.08,39.45,0,3.84.3,7.64.99,11.42,3.2,17.63,17.04,26.63,34.53,22.46,8.42-2.01,15.84-5.91,22.36-11.59.87-.76,1.39-2.41,3.29-1.7,0,1.8,0,3.62,0,5.44.01,6.34,1.65,8.07,7.9,8.18,3.99.07,8-.09,11.98.07,4.06.16,7.14-1.18,9-4.91,6.94.3,13.88,2.14,20.82,0,1.44,3.83,4.29,4.95,8.23,4.93,25.75-.1,51.51-.06,77.27-.01,2.59,0,4.95-.33,6.91-2.16,4.36.83,8.74,1.59,13.08,2.53,1.21.26,2.38.7,3.1-.53,1.42-2.42,3.77-1.56,5.79-1.87,2.19,1.79,4.75,1.99,7.46,1.99,11.09.02,22.18.16,33.26.25.08.98-.05,2.2,1.13,2.52,2.02.56,3.56,1.37,2.45,3.76-1.07,2.31-2.91.88-4.35.54-2.95-.69-5.91-1.67-8.43.83-4.15,4.13-4.43.93-4.44-2.7-2.48,1.05-3.43,2.84-3.03,4.87.51,2.61,8.13,6.78,11.09,6.34,2.02-.3,3.96.04,4.3,2.18.29,1.8-1.55,3.63-3.03,3.25-4.23-1.1-6.73,1.88-10.02,3.16-8.46,3.29-17.21,5.07-26.35,2.52-1.49-.42-3.24.47-4.59,1.52-.62.48-1.05,1.9-1.81,1.4-6.07-3.93-5.03,2.37-6.2,4.58-1.64,3.09.18,5.29,3.6,4.81,8.19-1.16,16.57-.79,24.6-3.44,3.35-1.11,6.2-.46,4.36,4.46-.68,1.81-.03,5.58,1.54,4.74,3.91-2.11,7.22.51,10.85-.03,4.7-.69,9.55-2.83,14.43.51,4.35,2.97,9.39,3.46,14.67,2.33,3.34-.71,6.81-1.23,10.29-.3,1,.27,2.14.42,2.37,1.49.32,1.47-1.03,1.33-1.94,1.58-1.91.52-3.3,1.57-3.35,3.76-.03,1.31,1.87,2.93-.32,3.86-1.55.66-2.17-1.03-3.14-1.87-1.8-1.54-3.5-.77-4.71.85-1.79,2.4.87,2.09,1.86,2.79.94.66,2.22,1.13,2.74,2.03,1.29,2.26,2.53,2.65,4.75,1.09.95-.67,2.55-.47,3.86-.56,5.58-.37,10.63,2.22,16.11,2.86,9.16,1.08,18.22,2.11,27.41,1.09,1.6-.18,3.84-.22,3.66-2.38-.15-1.8-2.25-1.57-3.72-1.57-4.5-.02-8.99.01-13.49-.02-1.65-.01-4.24-.07-3.68-2.15,1.32-4.93-2.14-5.43-5.09-6.07-2.97-.64-6.21-3.05-9.12.4-.83.98-2.1,2.47-3.31,1.37-1.59-1.45-1.87-3.83-1.76-5.94.09-1.82,1.85-1.66,3.13-1.58,4.27.27,8.19-1.12,12.15-2.34,2.61-.8,5.5-1.63,7.62.23,2.46,2.16,5.08,2.1,7.9,2.08,5.39-.04,10.82,1.21,16.14-.9,1.29-.51,3.04-.32,4.44.06,1.68.46,3.99,1.26,3.76,3.25-.24,2.05-2.61,1.48-4.2,1.57-.83.05-1.67-.04-2.5.02-1.74.12-4.4-.41-4.13,2.19.22,2.08,2.61,2.69,4.78,2.57,4.9-.28,9.69-1.08,14.22-3.08,2.48-1.09,5.28-.99,5.72,1.73.44,2.7-2.71,1.06-4.13,1.69-1.96.87-4.75,1.45-4.61,3.89.16,2.95,2.98,2.92,5.4,3.03,7.46.34,14.75,2.06,22.25,2.6,9.43.67,18.76.34,28.14.36,2.13,0,3.32-.81,3.7-3.11,1.27-7.74,8.47-12.81,16.47-12.28,3.25.21,6.91.63,9.13-3.03,3.23-5.33,8.2-6.45,14-5.64,1.04.15,2.33-.36,3.29-.93,2.94-1.74,5.43-2.56,8.44.37,1.64,1.6,4.44.83,6.6-.36,1.54-.85,2.77-2.26,4.96-1.28,1.33.6,2.82-.21,2.67-1.94-.13-1.4-1.31-1.72-2.66-1.26-1.1.37-2.35.87-2.53-1.07-.42-4.32,3.44-8.77,7.61-8.61,1.34.05,2.28-.51,3.02-1.41,2.03-2.45,4.45-3.58,7.75-3.71,1.93-.08,4.7-.87,5.01-3.35.31-2.46-.85-4.5-3.15-6.24-3-2.27-10.14-.9-7.92-8.22.03-.09-.17-.33-.31-.37-4.36-1.19-6.4-6.86-11.85-6.02-1.85.28-1.51-1.42-1.52-2.47-.02-3.93-2.21-5.27-5.8-5.05l-.06-13c2.26.1,5.75,1.17,6.57.13,2.61-3.31,6.22-2.65,9.36-3.75,1.36-.48,4.63.32,3.42-2.73-.9-2.28-3.41-3.14-5.9-2.26-1.02.36-1.78,1.43-2.67,2.17-1.22,1.01-2.2,3.03-4.09,2.05-1.51-.79-1.41-2.59-1.64-4.3-.39-2.79-.68-6.39-5.05-6.3-.81-5.54,4.93-5.92,7.17-9.07,1.59-2.25,3.09-1.55,4.65.25,5.19,6.01,10.45,11.95,15.68,17.92-.32,2.09-.45,4.24-1.02,6.26-1.02,3.63.28,5.62,4.16,5.07,2.47-.35,3.84-.12,4.2,2.49-3.04,2.47-4.11,5.66-2.66,9.25,1.39,3.44,4.59,3.8,7.9,3.79,9.25-.03,18.5.05,27.75.09.61,3.61-1.45,6.98-.68,10.82.29,1.45-.2,5.63-4.06,6.31-2.08.36-3.2,1.71-2.67,4.4.51,2.61.91,5.92-.26,8.03-2.04,3.69.32,6.25,2.01,7.73,1.96,1.73,4.29,4.63,8.52,2.35,1.97-1.06,7.05-.64,8.58.39,5.46,3.7,10.97,1.4,16.36,1.59,2.4.08,3.91-.68,5.59,2.09,1.35,2.24,4.47,4.3,7.54,1.61,1.95-1.7,2.94-.27,4.64.46,3.35,1.43,4.98,8.87,10.56,3.39.17-.16,1.46.32,1.6.72,1.03,2.92,4.11,2.61,6.14,3.55,2.09.97,5.14,1.61,7.3-.96,4.24-5.06,9.33-6.58,14.91-3.75,4.48,2.27,8.91,1.74,13.44,1.05,2.39-.36,3.16-2.42,2.1-4.11-2.16-3.45-1.69-6.92-1.24-10.56.29-2.38-5.61-6.27-6.98-4.58-2.79,3.42-4.57,2.02-6.7-.37-.98-1.1-2.2-1.39-3.61-.81-2.4,1-4.93.49-7.41.52-2.33.02-3.93-.61-2.97-3.59,1-3.08-.99-5.26-3.49-5.55-3.12-.36-5.17-1.76-7.23-3.75-.51-.5-1.75-.43-1.44-1.53.32-1.14,1.27-1.44,2.38-1.04,1.85.66,4.35,1,4.64-1.16.74-5.43,4.65-6.9,10.11-8.19q-10.41-1.54-11.96-3.88c10.8-2.49,20.69-6.83,29.1-15.28.41,3.22.58,5.5,1.02,7.74.63,3.24,2.55,5.73,5.9,5.89,6.3.32,12.65.4,18.95.03,3.65-.22,5.32-3.06,5.43-6.66.12-3.78-1.3-6.54-5.29-7.26-1.78-.32-3.7-.62-5.45-.3-5.42,1-6.13-1.52-6.05-6.28.28-15.47.99-30.98-.33-46.41-1.01-11.93-6.5-21.51-18.16-25.88-17.85-6.7-35.12-3.11-51.86,4.43-2.37,1.07-3.99,3.09-3.65,6.25.88,8.31,5.04,10.87,12.58,7.19,8.16-3.98,16.47-7.03,25.76-6.8,14.45.36,22.53,9.99,20.19,24.52-1.3-.3-2.58-.6-3.87-.9-15.75-3.65-31.41-3.98-46.55,2.41-20.1,8.47-25.17,32.73-10.41,48.8.88.95,2.17,1.63,2.16,3.18-2.57,1.75-6.85-1.88-8.51,2.72-.15-.06-.34-.09-.46-.2-3.12-2.79-4.66.39-6.63,1.79-1.02.73-2.71,1.56-1.92,3.02.75,1.39,2.3.52,3.57.15,1.2-.35,2.44-2.26,3.75,0,1.7,2.92,4.56,3.57,7.65,3.59,1.55.01,3,.07,3.72,1.79.35.82.52,1.62-.17,2.29-1.44,1.4-3.02.86-4.63.26-3.55-1.34-7.03-2.94-11.02-2.36-2.21.32-4.24.07-5.37-2.44-.85-1.88-2.17-1.86-3.35-.13-1.17,1.71-2.59,1.72-4.32.85-1.67-.83-2.52-2-2.5-3.9.02-1.99-.11-3.98-.18-5.97,1.53-4.15,2.25-8.31-2.24-11.05-2.63-1.61-5.86-.9-8.84-.97-2.16-.05-4.14.05-5.87-1.88-11.09-12.43-22.27-24.77-33.5-37.07-1.46-1.59-1.58-2.53.16-3.95,3.22-2.64,6.16-5.61,9.39-8.23,8.1-6.56,14.96-15.23,27.39-13.86,4.26.47,6.11-3.48,5.67-7.74-.41-4.03-2.94-5.68-6.8-5.68-9.5,0-18.99-.05-28.49.02-5.87.04-6.24.78-6.44,6.61-.12,3.57,2.91,4.09,4.79,6.27-9.15,7.93-18.29,15.86-28.05,24.32,0-3,0-5.14,0-7.27-.04-21.16-.06-42.31-.13-63.47-.02-6.31-2.05-8.31-8.4-8.38-4.83-.06-9.67.13-14.49-.07-4.31-.17-7.72.84-8.64,5.55-.92,4.74,1.34,7.63,5.86,8.93-4.04,2.85-6.78.25-9.42-2.35-1.05-1.04-.87-3.67-3.28-2.87-2.66.88-.63,2.74-.55,4.16.19,3.51-2.62,7.13-4.47,5.68-3.35-2.62-6.32-1.28-9.76-.59-3.43.69-6.84,1.48-10.68.91-9.05-1.33-18.24-3.1-27.43-.67-1.25.33-2.38.09-3.31-.61-4.18-3.13-9.22-3.21-14.04-4.08-3.53-5.42-6.66-6.05-13.07-2.62-3.65-2.56-3.93,3.56-7.23,2.76-1.98-.48-3.54,1.24-4.6,3.16-2.26,4.09-4.24,9.02-10.47,4.5-.78,1.96,2.34,3.8-.28,4.66-2.13.7-3.35-.72-3.61-2.91-.12-1.05-.61-1.94-1.73-2.18-6.89-1.51-14.14-1.21-20.75-4.2-.73-.33-1.9.34-2.87.49-8.07,1.22-16.23,2.85-21.51-6.02-.82-1.38-2.36-1.76-3.96-1.62-.1-2.49-.13-4.98-.31-7.46-.19-2.57-.91-4.9-3.36-6.31-6.84-3.92-15.21-.66-17.27,6.76-4.97,1.01-8.89,3.87-9.17,6.67-.57,5.89-4.21,8.92-10.13,9.42-4.6.39-8.81-3.37-12.34-2.59-9.94,2.21-20.47-4.58-29.91,2.33-.66.48-2.01.32-2.94.07-5.26-1.38-9.73-.37-13.26,3.96-.72.89-1.64,1.13-2.6.34-2.05-1.69-5.07-2.12-6.5-4.51-1.55-2.58-3.76-2.97-6.38-2.71-.1-2.32-.27-4.64-.3-6.96-.11-7.64-1.82-9.45-9.44-9.55-9.66-.12-19.32-.11-28.99-.2-9.4-.09-12.05,3.75-8.58,12.49-3.78,2.42-7.95,5.63-11.63,6.44-4.1.9-8.67,2.65-13.32,1.85-3.31-.57-6.29.48-9.39,2.12-4.77,2.53-9.17,5.79-14.02,7.96-5.5,2.47-6.32,7.37-8.25,11.87-4.97.8-10.05-.4-15,.82ZM581.02,643c-.31,2.52-2.32,1.81-3.85,2.04-5.77.86-11.54,1.72-16.34,5.47-3.73,2.91-3.6,5.71.52,8.1,4.48,2.6,9.22,4.64,14.22,5.99,23.83,6.41,48.17,9.64,72.76,10.17,29.91.66,59.85.99,89.67-2.75,17.61-2.2,35.18-4.67,52.52-8.31,15.08-3.17,30.31-6.14,44.19-13.47,2.01-1.06,3.42-1.88,3.22-4.29,4.76-2.96,10.7-5.27,9.98-12.3-.69-6.75-6.52-8.65-11.8-10.78-.77-.31-1.54-.63-2.32-.92-8.88-3.31-17.83-6.47-26.64-9.96-5.35-2.12-10.44-4.85-15.27-8.62,1.73-1.29,3.04-2.27,4.34-3.24l.28.1.14-.29c1.08-.08,1.8-.74,2.46-1.51,5.09-2.77,8.88-6.97,12.31-11.5,27.07-35.77,20.45-91.23-14.31-119.57-32-26.09-79.19-30.65-114.61-4.99-1.24.9-2.15,2.15-4.33,1.1-10.31-4.97-10.41-4.93-9.94-16.31.07-1.66.22-3.32.36-4.98.53-6.24,1.04-12.17,5.05-17.78,4.99-7,2.75-17.17-3.52-22.13-5.95-4.71-15.25-4.24-21.2,1.07-6.32,5.64-8.5,15.8-3.29,22.13,3.78,4.59,2.75,8.35,1.27,12.73-1.01,2.99-2.29,5.89-3.33,8.88-.86,2.47-2.36,3.18-4.96,2.81-14.19-2.05-28.25-.91-42.12,2.45-4.78,1.16-7.64-.47-9.69-4.63-2.14-4.37-3.41-9-4.61-13.68-.85-3.32-.85-6.28.78-9.55,2.16-4.31,2.03-9.06.35-13.61-2.23-6.03-7.52-9.87-13.6-10.07-7.01-.23-13.07,3.19-15.65,9.46-2.77,6.74-2.63,13.46,2.47,19.18,2.04,2.29,3.83,4.34,4.23,7.57,1.08,8.76,2.11,17.52,2.21,26.36.03,2.14-.41,3.76-2.11,5.24-11.92,10.35-19.47,23.6-24.26,38.38-6.39,19.7-7.55,39.77-2.56,60.03.22,1.3.33,2.63.69,3.88,8.21,28.68,22.96,53.17,46.31,72.13ZM683.02,221.32c-2.24-2.23-4.14-2.82-6.32-1.74-.7.35-.68,1.41-.24,1.7,1.89,1.26,3.89.98,6.56.04ZM726.64,250.09c-.11-.97-.61-1.64-1.5-1.65-1.23-.01-1.47,1.14-1.74,2.02-.32,1.04.38,1.49,1.33,1.41,1.07-.1,1.77-.71,1.91-1.78Z"/>
      <path class="cls-16" d="M663.19,231.05c3.59-.22,5.78,1.11,5.8,5.05,0,1.05-.34,2.76,1.52,2.47,5.45-.84,7.5,4.83,11.85,6.02.13.04.33.28.31.37-2.22,7.32,4.92,5.95,7.92,8.22,2.3,1.74,3.46,3.78,3.15,6.24-.31,2.48-3.08,3.27-5.01,3.35-3.3.13-5.72,1.27-7.75,3.71-.75.9-1.68,1.46-3.02,1.41-4.17-.16-8.03,4.29-7.61,8.61.19,1.93,1.43,1.44,2.53,1.07,1.35-.46,2.54-.14,2.66,1.26.15,1.72-1.34,2.53-2.67,1.94-2.19-.98-3.42.43-4.96,1.28-2.16,1.19-4.96,1.96-6.6.36-3.01-2.93-5.5-2.11-8.44-.37-.96.57-2.25,1.07-3.29.93-5.8-.81-10.77.31-14,5.64-2.22,3.66-5.89,3.25-9.13,3.03-8-.53-15.2,4.55-16.47,12.28-.38,2.3-1.58,3.12-3.7,3.11-9.38-.02-18.71.31-28.14-.36-7.5-.53-14.79-2.26-22.25-2.6-2.42-.11-5.23-.08-5.4-3.03-.13-2.44,2.65-3.02,4.61-3.89,1.43-.63,4.57,1.01,4.13-1.69-.44-2.72-3.24-2.82-5.72-1.73-4.52,2-9.32,2.8-14.22,3.08-2.17.12-4.56-.49-4.78-2.57-.28-2.6,2.39-2.07,4.13-2.19.83-.06,1.67.03,2.5-.02,1.6-.09,3.96.48,4.2-1.57.24-2-2.08-2.79-3.76-3.25-1.4-.38-3.15-.57-4.44-.06-5.33,2.11-10.75.86-16.14.9-2.82.02-5.44.09-7.9-2.08-2.12-1.86-5.01-1.03-7.62-.23-3.96,1.22-7.89,2.61-12.15,2.34-1.28-.08-3.04-.25-3.13,1.58-.11,2.11.17,4.49,1.76,5.94,1.2,1.1,2.48-.39,3.31-1.37,2.91-3.45,6.15-1.04,9.12-.4,2.95.64,6.41,1.13,5.09,6.07-.56,2.08,2.03,2.13,3.68,2.15,4.5.03,8.99,0,13.49.02,1.48,0,3.57-.23,3.72,1.57.18,2.17-2.06,2.2-3.66,2.38-9.2,1.02-18.25-.01-27.41-1.09-5.48-.64-10.53-3.23-16.11-2.86-1.31.09-2.91-.11-3.86.56-2.22,1.56-3.46,1.17-4.75-1.09-.52-.9-1.8-1.37-2.74-2.03-.99-.7-3.66-.39-1.86-2.79,1.21-1.62,2.91-2.39,4.71-.85.98.84,1.6,2.53,3.14,1.87,2.19-.93.29-2.55.32-3.86.05-2.18,1.44-3.23,3.35-3.76.91-.25,2.26-.11,1.94-1.58-.23-1.07-1.37-1.22-2.37-1.49-3.47-.93-6.95-.41-10.29.3-5.28,1.12-10.32.64-14.67-2.33-4.87-3.33-9.73-1.2-14.43-.51-3.63.53-6.94-2.08-10.85.03-1.57.84-2.21-2.92-1.54-4.74,1.83-4.91-1.02-5.56-4.36-4.46-8.03,2.66-16.41,2.29-24.6,3.44-3.43.48-5.24-1.71-3.6-4.81,1.17-2.21.13-8.5,6.2-4.58.76.49,1.19-.93,1.81-1.4,1.36-1.04,3.1-1.94,4.59-1.52,9.14,2.55,17.89.78,26.35-2.52,3.29-1.28,5.79-4.26,10.02-3.16,1.48.39,3.31-1.44,3.03-3.25-.34-2.15-2.28-2.48-4.3-2.18-2.96.44-10.58-3.74-11.09-6.34-.4-2.03.55-3.82,3.03-4.87.02,3.64.29,6.83,4.44,2.7,2.52-2.5,5.48-1.52,8.43-.83,1.44.34,3.29,1.76,4.35-.54,1.11-2.4-.43-3.21-2.45-3.76-1.18-.33-1.05-1.54-1.13-2.52,1.82-.07,3.64-.19,5.46-.2,12.46-.01,24.92.11,37.38-.07,2.9-.04,6.52.65,7.57-3.88,1.57-6.78-1.13-10.59-8.06-10.69-9.79-.14-19.58-.18-29.37-.27-.28-.34-.56-.67-.83-1.01-.05-1.66-.15-3.32-.15-4.98,0-21.16-.09-42.31.07-63.47.03-4.58-1.72-7.91-6.06-8.08-10.64-.43-21.32-.31-31.97.02-4.08.13-6.14,3.71-5.68,7.22.44,3.42,1.58,7.38,6.82,7.16,5.99-.25,11.99.07,17.99-.07,2.62-.06,3.82.38,3.79,3.46-.17,18.82-.19,37.65-.07,56.47.02,2.96-.94,3.61-3.69,3.56-8.66-.17-17.32-.08-25.99-.08-9.27,0-12.15,4.61-7.91,12.66-2.03.31-4.37-.55-5.79,1.87-.72,1.22-1.9.79-3.1.53-4.34-.94-8.72-1.7-13.08-2.53,2.34-9.83.21-12.6-9.6-12.55-7.98.04-15.96-.13-23.94.15-3.35.12-4.09-.95-4.07-4.13.12-18.12-.03-36.24,0-54.36.02-15.28.16-30.57.25-45.85,2.62-.26,4.83.12,6.38,2.71,1.43,2.38,4.45,2.82,6.5,4.51.96.79,1.88.55,2.6-.34,3.53-4.34,8-5.35,13.26-3.96.93.24,2.28.41,2.94-.07,9.43-6.91,19.97-.12,29.91-2.33,3.53-.78,7.74,2.98,12.34,2.59,5.92-.51,9.55-3.53,10.13-9.42.27-2.81,4.2-5.66,9.17-6.67.18,4.28.36,8.56.54,12.85-1.37.4-3.38-.61-4.06,1-.69,1.65,1.32,2.41,2.22,3.49,2.2,2.67,4.61,5.19,6.69,7.96,1.84,2.44,3.71,2.12,5.31.17,1.52-1.86,3.43-3.7,3.13-6.51,6.88-1.3,6.81-6.74,7.11-11.96,1.6-.14,3.14.25,3.96,1.62,5.28,8.87,13.44,7.24,21.51,6.02.97-.15,2.14-.82,2.87-.49,6.61,2.99,13.86,2.7,20.75,4.2,1.11.24,1.6,1.14,1.73,2.18.26,2.19,1.48,3.61,3.61,2.91,2.63-.86-.5-2.7.28-4.66,6.23,4.52,8.21-.42,10.47-4.5,1.06-1.92,2.63-3.64,4.6-3.16,3.3.8,3.58-5.32,7.23-2.76-1.22,1.13-1.96,2.28-1.89,4.2.15,4.13-.16,8.28-.29,12.42-3.82-.14-4.87,2.44-4.82,5.46.05,2.87,2.08,3.88,4.81,3.54.95,3.66.12,5.74-4.24,5.03-1.46-.24-3.13-.43-4.45.05-2.5.91-5.79-.12-7.27,3.55-2.88,7.18-.95,10.57,7,11.39,2.98,1.66,5.97,3.32,8.95,4.98,0,11,.13,21.97-.39,32.99-.44,9.31.57,19.04,4.57,27.95-4.76,2.93-2.52,6.55-.63,9.72,1.9,3.19,4.74,2.99,7.61.92.63-.45,1.54-.51,2.31-.75.51.34.98.77,1.54,1,7.78,3.11,15.82,3.3,23.98,2.03.05,1.64-.06,3.31.21,4.92.18,1.07.76,2.34,2.36,1.52,3.34-1.73,7.22-2.07,10.38-4.35,1.84-1.32,4.51-1.66,6.05-3.19,2.85-2.83-3-3.34-2.04-5.94,1.44-1.06,2.92-2.07,4.32-3.18,3.79-3.03,7.43-6.23,9.5-10.75,1.42-3.1,1.6-6.27-1.41-8.59-2.94-2.26-5.95-1.62-8.67.61-1.15.95-2.19,2.04-3.27,3.07-4.77,4.54-10.2,8.01-16.53,9.92-15.05,4.54-24.34-1.98-24.64-17.65-.27-13.98,0-27.97-.17-41.95-.04-2.97.97-3.57,3.69-3.54,11.32.14,22.64.1,33.96.06,6.22-.02,8.54-2.23,8.4-7.81-.12-4.88-2.47-6.74-8.38-6.68-11.15.1-22.31.06-33.46.35-3.33.09-4.25-.91-4.15-4.2.25-8.15.1-16.31.11-24.47,4.82.87,9.86.95,14.04,4.08.93.7,2.07.94,3.31.61,9.19-2.43,18.37-.67,27.43.67,3.83.57,7.24-.23,10.68-.91,3.44-.69,6.41-2.03,9.76.59,1.85,1.45,4.65-2.17,4.47-5.68-.08-1.42-2.11-3.28.55-4.16,2.41-.8,2.23,1.84,3.28,2.87,2.65,2.61,5.38,5.21,9.42,2.35,1.99.05,3.99.21,5.98.12,3.94-.18,5.06,1.35,5.04,5.47-.19,31.96-.13,63.91.06,95.87.02,3.72-.83,4.8-4.61,4.69-4.3-.13-9.19-1.25-12.27,3.43-.46-1.26-.89-2.66-2.57-2.6-.88.03-1.59.83-1.61,1.66-.08,3.13-2.09,6.12-.87,9.29.71,1.84.09,2.78-1.11,4.27-2.53,3.16-6.59,4.65-8.33,8.75-1.18,2.79-.07,4.62,1.88,4.09,4.94-1.34,7.82,1.81,11.13,4,2.3,1.52,3.86,2.48,4.13-1.38.1-1.36,1.25-2.76,2.09-1.64,3.17,4.22,4.98,1.67,6.73-1.39,1.98,3.61,2.03,3.63.74,7.02-.45,1.19-.14,1.96.86,2.46,1.01.51,1.8.28,2.41-.86,1.84-3.4,7.18-5.92,10.92-5.29,2.54.43,7.95-4.27,6.83-6.33-2.1-3.85-.72-8.96-4.62-12.01,2.23-1.83,2.95-4.35,3.22-7.07ZM586.76,302.18c3.8.12,6.81-2.43,10.4-2.84.94-.11,1.81-.92,1.6-2.15-.23-1.34-1.18-2-2.44-2.06-2.8-.12-5.61-.37-8.34.69-.89.35-2.03.39-2.61-.69-.48-.89.01-1.55.74-2.08,1.12-.81,2.28-1.7,1.04-3.19-1.04-1.24-2.16-3.19-3.9-2.57-3.22,1.14-7.21,1.34-8.54,5.57-.3.97-1.05,2.28-.08,2.64,4.39,1.61,7.11,6.31,12.14,6.69ZM597.06,244.93c.27.29.55.59.82.88.55-.27,1.08-.63,1.66-.8,5.49-1.67,8.05-8.22,14.58-8.54,1.51-.07,2.93-2.92,4.27-4.59.34-.43.48-1.36.24-1.83-.49-1-1.29-.53-2.05-.11-2.85,1.58-5.56,2.07-7.83-1.06-.68-.93-1.74-.92-2.64-.23-1.21.94-1.04,1.99.07,2.89,3.1,2.51.82,4.46-1.14,5.2-4.2,1.58-5.02,5.76-7.99,8.18ZM547.66,272.08c1.45-.48,3.89-.01,3.79-2.61-.11-2.77-5.03-5.95-7.77-5.38-1.93.41-3.31,1.55-2.22,3.42,1.29,2.22,2.97,4.43,6.2,4.56ZM462.47,264.01c-1.39.41-4.07.03-4.17,2.67-.1,2.68,2.77,2.8,4.5,2.92,2.16.14,4.72-1.12,4.63-3.49-.08-2.02-2.66-1.99-4.96-2.1ZM667.96,243.59c.17,1.24-.43,3.02,1.45,3.21,2.12.22,2.79-1.72,3.15-3.25.45-1.94-1.27-2.66-2.73-2.79-1.95-.18-1.68,1.58-1.86,2.83ZM457.87,256.37c-.21-1.29-.96-2.14-2.23-2.17-1.65-.03-2.97,1.04-3.15,2.5-.2,1.6,1.45,2.08,2.72,1.97,1.25-.1,2.54-.67,2.66-2.3ZM450.6,268.17c-.36-.44-.76-1.33-1.4-1.59-.79-.32-1.05.54-1.02,1.22.04.91.58,1.6,1.42,1.81.85.22,1.09-.41,1-1.44ZM450.04,262.09c-.44.68-.81,1.02-.87,1.4-.08.49.12,1.04.82.75.26-.11.58-.47.58-.71,0-.37-.25-.74-.53-1.44ZM593.71,248.48c-.12.27-.24.55-.35.82.27.12.61.39.81.31.2-.08.25-.5.37-.78-.27-.12-.55-.24-.82-.35Z"/>
      <path class="cls-6" d="M205.19,646.83c-.56-1.83-2.42-2.14-3.7-3.11-6.73-5.15-6.35-12.75,1.11-16.91,6.54-3.65,13.82-5.5,20.82-8.04,5.21-1.89,10.42-3.76,15.63-5.64,0,2.26,0,4.52-.01,6.79-1.66.73-3.33,1.44-4.98,2.2-8.07,3.71-17.06,4.86-24.98,8.99-2.49.71-5.06,1.75-5.13,4.64-.07,2.79,2.8,3.45,4.82,4.45,4.65,2.32,9.69,3.5,14.69,4.78,24.9,6.38,50.46,8.67,75.86,11.85,16.8,2.1,33.66,3.99,50.66,3.9,21.67,1.1,43.27.83,64.58-3.83,9.57-2.09,19.24-4,27.53-9.74,2.38-.06,4.28-1.18,6-2.71.69-.46,1.38-.91,2.07-1.37l.02.07c8.78-4.6,15.35-11.76,21.9-18.94,19.2-20.73,31.75-44.59,34.44-73.1.75-4.44.95-8.9.32-13.38.35-4.4-.27-8.66-1.46-13.69-.95,1.35-1.34,1.86-1.69,2.4-5.94,9.24-15.27,12.11-24.96,7.66-9.3-4.27-14.34-14.93-11.59-24.56,3.2-11.24,7.96-14.81,20.92-15.69,2.35.36,4.7.71,7.65,1.16-3.1-6.47-7.01-11.61-11-16.7-2.37-3.02-4.74-5.87-9.21-4.66-1.46-11.82-.81-23.6.84-35.34.69-4.95,1.51-9.78,5.73-13.37,1.89-1.61,2.61-4.22,1.95-6.89-.1-7.24-3.58-11.52-9.55-11.77-5.26-.22-8.85,3.5-9.44,9.77-.8,1.99-.29,3.9.42,5.78.82,2.15,2.59,4.16,2.26,6.48-1.48,10.29-2.92,20.65-10.73,28.58-4.21,1.35-8.45,1.4-12.76.5-12.26-2.56-24.63-3.2-37.11-2.1-3.75.33-5.54,1.3-2.18,4.76-.38,1.82,2.01,4.42-.49,5.35-2.31.86-2.99-2.11-3.91-3.66-4.33-7.28-7.97-14.86-10.56-22.98-1.93-6.05-4.05-11.77,1.52-17.13,1.11-1.07,1.65-2.88,1.18-4.65-.02-.66-.04-1.32-.06-1.98.29-.8.32-1.55-.42-2.15-1.23-5.15-4.67-7.74-9.79-8.02-4.51-.24-8,1.4-9.3,6.17-2.04,4.39-1.28,8.59,1.65,12.12,2.14,2.57,3.31,5.26,3.63,8.51.31,3.12.93,6.21,1.29,9.33,1.14,9.83.26,19.53-2.04,29.12-.28,1.16-1.07,2.4-2.25,2.39-.85,0-1.24-1.22-1.4-2.31-.74-5.08-1.11-5.26-5.53-1.98-16.54,12.26-26.43,28.7-30.4,48.81-.6,2.02-1.2,4.05-1.81,6.07-1.69,2.03-3.71,1.98-5.89.93-.19-3.01.64-5.88,1.24-8.78,2.47-11.9,7.66-22.69,13.52-33.21,2.46-1.92,4.32-4.35,5.94-6.99,1.44-1.35,2.8-2.82,4.35-4.03,2.16-1.69,2.08-2.72-.31-4.29-27.3-18.01-55.6-19.7-84.95-5.46-5.95,2.51-11.3,5.99-16.19,10.2-7.29,5.14-13.07,11.64-17.34,19.47-3.34,4.26-5.48,9.15-7.46,14.13-2.57,6.76-4.81,13.6-4.92,20.93-1.43,8.05-.84,16.04.73,23.99.07,5.54,2.33,10.58,3.68,15.83-2.4,1.46-1.31,3.66-1.31,5.71,0,4.49,3.41,8,3.35,12.47-10.45-14.88-14.48-31.67-13.99-49.54.98-35.53,16.94-62.28,48.75-78.39,32.65-16.53,64.6-14.12,94.95,6.53,1.93,1.32,3.1,1.16,5.25.37,8.2-3.01,10.32-8.64,8.65-16.69-.74-3.56-.74-7.28-1-10.93-.26-3.58-1.44-6.52-3.87-9.41-5.37-6.37-4.35-17.76,1.58-23.34,6.01-5.67,15.96-5.59,22.31.19,6.72,6.11,8.14,16.81,2.62,23.5-2.3,2.78-2.33,5.09-1.24,8.16,1.67,4.71,2.26,10.32,5.73,13.68,3.83,3.72,9.47.6,14.26.52,10.72-.17,21.3.71,31.73,3,5.12,1.12,8.32-.47,10.47-5.09,2.41-5.18,3.65-10.68,4.93-16.2.53-2.3-.82-3.78-1.64-5.55-3.14-6.74-1.96-14.95,2.85-20.06,4.13-4.39,11.12-5.87,17.09-3.63,10.51,3.94,14.01,19.35,6.19,28.2-2.11,2.39-3.21,4.78-3.64,7.89-1.18,8.43-2,16.86-2.06,25.37-.01,2.03.09,3.79,1.82,5.38,23.86,21.89,32.58,49.74,30.66,81.18-2.26,36.93-19.7,66.42-46.73,90.79-1.48,1.33-2.95,2.66-4.43,3.99-18.62,13.75-39.86,19.99-62.59,22.39-24.61,2.59-49.16,1.88-73.75-.21-32.68-2.78-65.22-6.6-97.37-13.2-7.77-1.59-15.36-4.01-23.04-6.04ZM499.56,505.32c-.18-3.28-1.9-5.75-5.53-6.12-3.26-.33-5.43,1.63-5.83,4.79-.46,3.65,1.47,6.13,5.11,6.63,3.55.49,5.47-1.62,6.25-5.3Z"/>
      <path class="cls-16" d="M246.05,146.08c1.93-4.5,2.75-9.41,8.25-11.87,4.85-2.17,9.25-5.44,14.02-7.96,3.1-1.64,6.08-2.69,9.39-2.12,4.65.8,9.22-.95,13.32-1.85,3.67-.81,7.84-4.01,11.63-6.44,1,2.37,3.13,2.05,5.06,2.07,8.45.12,16.9.19,25.35.28.38.25.76.51,1.15.76.94,34.49.2,68.98.49,103.47.01,1.26-.56,1.8-1.79,1.73-.59-.72-1.18-.71-1.77,0-5.41,0-10.83-.01-16.24-.02-4.24-.97-8.49-1.01-12.74,0-6.05,1.14-6.99,2.41-7.26,9.92-6.94,2.14-13.88.3-20.82,0,.09-1,.17-2,.26-3,1.69-.15,4.12.5,4.24-1.99.1-1.97-.55-4.1-2.86-5.2-2.14-1.02-3.71-.96-4.75,1.39-1.64-.25-3.37-.94-4.91-.65-5.48,1.04-6.05-1.58-5.99-6.27.29-21.28.19-42.56.22-63.84,0-6.63-1.49-8.06-8.3-8.14-1.98-.02-3.97-.17-5.95-.27Z"/>
      <path class="cls-4" d="M796.22,600.13c-1.31.97-2.61,1.95-4.34,3.24,4.83,3.77,9.92,6.5,15.27,8.62,8.81,3.49,17.75,6.66,26.64,9.96.78.29,1.55.6,2.32.92,5.29,2.13,11.12,4.03,11.8,10.78.72,7.03-5.22,9.34-9.98,12.3-4.62,1.36-9.2,2.9-13.87,4.07-25.26,6.32-51.05,9.48-76.86,12.42-28.97,3.3-58.01,5.73-87.22,4.43-28.34-1.26-55.6-6.1-78.95-23.87-23.36-18.96-38.1-43.45-46.31-72.13-.36-1.26-.47-2.59-.69-3.88,2.91.15,4.83-1.03,5.45-4,5.36,23.65,16.49,44.36,32.49,62.4,7.25,8.18,15.35,15.58,25.98,19.39,2.58.85,3.84,4.26,7.14,3.71,4.22,2.83,9.03,4.22,13.84,5.49,18.79,4.97,37.96,6.68,57.35,6.47,36.69-.39,73.04-4.73,109.29-9.79,16.9-2.36,33.84-5.13,49.87-11.48,2.24-.89,5.34-1.47,5.36-4.48.02-2.84-2.85-3.8-5.02-4.99-.56-.31-1.24-.39-1.86-.58-10.04-4.11-20.36-7.36-30.81-10.23-5.31-3.67-11.54-5.86-16.22-10.62-1.47-1.49-4.17-2.19-6.53-1.18-11.98,5.12-24.7,4.9-37.3,4.88-10.79-.02-21.15-2.69-31-7.17-2.83-2.22-5.85-4.23-8.42-6.71-1.94-1.87-3.06-2.69-4.42.4-.91,2.05-2.4,3.61-5.03,2.39-.84-2.3.36-4.25,1.24-6.17,13.05-28.34,16.62-57.49,7.55-87.73,1.72-1.01,3.43-2.03,5.15-3.04,3.17,6.5,3.83,13.7,5.77,20.83,3.65-8.37,9.29-15.14,15.23-21.7,3.98-2.93,7.97-5.86,11.95-8.8,4.88-2.13,9.8-4.19,14.98-5.53,8.14-1.24,16.04-.05,23.84,2.29,2.64,1.43,5.28,2.86,7.92,4.29,2.44,2.2,4.87,4.39,7.31,6.59,2.88,3.83,5.34,7.93,7.47,12.22,1.23,5.26,2.47,10.53,3.7,15.79.09,6.46-.45,12.84-2.16,19.09-2.23,5.45-5.25,10.41-9.32,14.7-3.28,2.11-6.56,4.22-9.84,6.32-6.1,1.71-12.09,2.12-17.74-1.5-1.71-2.05-3.35-4.12-4.29-6.67-1.71-4.65-1.42-9.16.98-13.47.8-1.43,1.96-3.03,3.94-2.07,1.77.86,1.12,2.52.68,3.96-.25.79-.6,1.55-.83,2.35-2.38,8.17,3.03,14.52,11.46,13.15,5.73-.93,10.43-3.91,14.16-8.41,11.34-13.68,10.4-37.27-2.05-50.55-11.95-16.2-37.93-17.62-54.39-2.96-6.22,4.27-10.62,10.09-14.17,16.63-8.04,10.9-8.83,23.59-9.02,36.43l-.16.2.1.24c-.65.7-.81,1.45-.22,2.27-.16.66-.33,1.31-.49,1.97-1.29,4.79-2.55,9.59-3.87,14.37-.41,1.49,0,2.54,1.27,3.41,14.02,9.58,29.51,14.69,47.93,15.78-7.24-7.73-9.78-16.46-12.29-25.21-.11-1-.22-2.01-.33-3.01.03-4.32.06-8.64.09-12.96,1.45-10.2,5.7-18.96,13.29-26.03,6.12-3.97,12.57-5.68,19.69-2.88,6.68,4.1,9.08,10.26,8.44,17.81-.14,1.64-.35,3.81-2.44,3.76-2.76-.06-1.27-2.36-1.44-3.81-.59-5.2-2.06-10.14-7.04-12.71-4.74-2.45-9.38-1.23-13.56,1.87-3.14,2.32-5.43,5.37-7.15,8.83-4.59,9.28-5.55,19.02-3.45,29.1.84,6.95,3.45,13.17,7.86,18.59,6.67,8.19,19.85,14.75,32.85,5.28,1.61-1.17,3.31-2.22,4.97-3.33.81,2.58,2.48,5.02,1.36,7.93-.65.77-1.38,1.43-2.46,1.51,0,0-.41.19-.41.19ZM769.06,603.38c.06-.42.12-.84.18-1.25-.59-.28-1.14-.69-1.76-.82-1.13-.24-2.3-.42-3.46-.43-19.79-.25-38.39-4.57-54.79-16.22-1.7-1.21-2.43-.93-3.31.91-2.25,4.7-1.03,7.85,5.68,11.78,18.31,10.73,37.87,8.79,57.47,6.04Z"/>
      <path class="cls-6" d="M708.12,503.95c-1.72,1.01-3.43,2.03-5.15,3.04-.23-.21-.5-.36-.8-.45-.53-1.51-1.06-3.03-1.59-4.54-.19-.37-.38-.74-.57-1.11-.95-1.83-1.9-3.65-2.84-5.48-6.05-11.78-14.69-21.22-25.74-28.49-1.88-1.23-3.62-2.39-3.59,1.41.01,1.29.93,3.4-1.46,3.47-1.78.06-1.98-1.47-2.3-3.12-2.66-13.65-2.17-27.22.62-40.77.28-1.35.87-2.42,1.81-3.45,3.9-4.27,4.38-9.06,1.87-14.21-2.16-4.49-5.93-5.54-10.37-4.48-4.76,1.14-7.94,3.95-8.16,9.23-1.65,3.84.22,6.87,2.62,9.43,2.07,2.21,2.46,4.37,1.91,7.24-2.06,10.79-6.23,20.67-12.31,29.77-1.08,1.62-1.33,5.06-3.94,4.03-2.26-.89.32-3.55-.06-5.43,2.37-2.92,2.13-4.23-2.09-4.51-12.04-.82-23.92-.3-35.75,2.27-6.18,1.35-12.73,2.89-17.22-3.9-1.46-3.51-3.21-6.93-4.31-10.54-2.23-7.39-5.29-14.78-.85-22.55.93-1.63.81-3.88-.1-5.81-1.38-5.72-4.41-8.31-9.41-8.07-5.02.24-8.28,3.4-9.35,9.06-1.45,4.1-.27,7.63,2.81,10.37,2.66,2.37,3.77,5.22,4.5,8.59,1.67,7.68,1.97,15.49,2.85,23.25,0,1.21.02,2.43.02,3.64-.05,1.74-.1,3.47-.15,5.21-.15.97-.13,2.01-.48,2.9-.72,1.8,1.21,6.69-4.01,3.67-.22-.13-.92.31-1.22.64-5.69,6.22-11.07,12.65-14.92,21.16,2.76-.7,4.64-1.19,6.52-1.67.99.05,1.98.11,2.97.15,8.26.34,14.37,4.23,17.51,11.8,3.45,8.3,2.35,16.45-3.46,23.37-5.12,6.1-11.94,8.07-19.78,6.11-6.03-1.51-9.73-5.78-12.82-11.77-1.38,5.4-1.92,9.91-1.46,14.53-.91,4.62-.27,9.19.53,13.75.01.96.03,1.92.04,2.88-.37.64-.37,1.23.23,1.74.26,2.23.51,4.47.77,6.7-.62,2.97-2.54,4.15-5.45,4-4.99-20.26-3.82-40.33,2.56-60.03,4.79-14.78,12.33-28.03,24.26-38.38,1.7-1.48,2.14-3.1,2.11-5.24-.1-8.85-1.14-17.6-2.21-26.36-.4-3.23-2.19-5.28-4.23-7.57-5.1-5.72-5.24-12.44-2.47-19.18,2.58-6.26,8.64-9.69,15.65-9.46,6.08.2,11.37,4.03,13.6,10.07,1.68,4.55,1.81,9.31-.35,13.61-1.64,3.27-1.64,6.22-.78,9.55,1.2,4.68,2.47,9.31,4.61,13.68,2.04,4.16,4.9,5.79,9.69,4.63,13.87-3.35,27.93-4.5,42.12-2.45,2.6.38,4.1-.34,4.96-2.81,1.04-2.98,2.32-5.89,3.33-8.88,1.48-4.38,2.51-8.14-1.27-12.73-5.21-6.33-3.04-16.49,3.29-22.13,5.95-5.31,15.26-5.78,21.2-1.07,6.28,4.97,8.52,15.13,3.52,22.13-4,5.61-4.51,11.54-5.05,17.78-.14,1.66-.3,3.32-.36,4.98-.47,11.38-.37,11.34,9.94,16.31,2.18,1.05,3.09-.2,4.33-1.1,35.42-25.66,82.62-21.1,114.61,4.99,34.76,28.35,41.38,83.8,14.31,119.57-3.43,4.53-7.22,8.73-12.31,11.5,1.12-2.91-.55-5.35-1.36-7.93.26-.21.51-.42.77-.63.45-.39.9-.78,1.35-1.17,1.45-2.56,4.67-3.76,5.31-6.94,1.28-.28,1.86-1.38,2.48-2.31,11.67-17.31,15.57-36.35,12.61-56.9-.73-6.17-2.38-12.09-4.82-17.79-1.58-5.06-3.94-9.7-7.24-13.87-3.98-7.34-9.21-13.56-16.13-18.3-3.84-3.71-8.29-6.49-13.13-8.7-1.22-.83-2.36-1.84-3.68-2.46-28.2-13.21-56.04-13.56-83.33,2.55-6.94,4.09-6.89,4.19-1.6,9.93,1.34,1.46,2.74,2.87,4.12,4.3,5.75,7.95,11.28,16.03,13.67,25.77ZM556.1,504.45c-.44-2.98-2.1-5.23-5.36-5.19-3.6.05-5.83,2.25-5.9,5.96-.06,3.4,2.17,5.3,5.26,5.36,3.66.07,5.58-2.32,5.99-6.13Z"/>
      <path class="cls-5" d="M631.35,228.07c3.08-4.68,7.97-3.56,12.27-3.43,3.78.11,4.63-.98,4.61-4.69-.19-31.96-.25-63.91-.06-95.87.02-4.11-1.1-5.65-5.04-5.47-1.99.09-3.98-.07-5.98-.12-4.52-1.29-6.77-4.19-5.86-8.93.92-4.72,4.33-5.73,8.64-5.55,4.82.2,9.66,0,14.49.07,6.35.08,8.38,2.08,8.4,8.38.07,21.16.09,42.31.13,63.47,0,2.13,0,4.27,0,7.27,9.76-8.46,18.9-16.39,28.05-24.32-1.88-2.18-4.91-2.7-4.79-6.27.19-5.82.57-6.57,6.44-6.61,9.5-.06,18.99-.02,28.49-.02,3.85,0,6.39,1.65,6.8,5.68.43,4.26-1.42,8.21-5.67,7.74-12.43-1.37-19.29,7.29-27.39,13.86-3.23,2.62-6.17,5.59-9.39,8.23-1.74,1.42-1.62,2.36-.16,3.95,11.23,12.3,22.41,24.64,33.5,37.07,1.73,1.93,3.71,1.83,5.87,1.88,2.98.07,6.21-.64,8.84.97,4.49,2.74,3.77,6.9,2.24,11.05-1.6.9-3.21,1.79-4.81,2.69-9.25-.04-18.5-.12-27.75-.09-3.31,0-6.51-.35-7.9-3.79-1.45-3.59-.38-6.79,2.66-9.25,2.01-.32,4.08-.21,1.79-3.3-2.79-3.76-6.9-6.32-9.13-10.52-5.23-5.97-10.49-11.91-15.68-17.92-1.56-1.8-3.05-2.5-4.65-.25-2.24,3.15-7.98,3.53-7.17,9.07,0,5,0,10,0,15l.06,13c-.27,2.72-.99,5.24-3.22,7.07-6.52,1.68-13.17.71-19.75.79-8.12.11-10.18-2.59-8.88-10.84Z"/>
      <path class="cls-5" d="M766.12,234.98c0-1.55-1.28-2.23-2.16-3.18-14.75-16.07-9.69-40.32,10.41-48.8,15.15-6.39,30.8-6.06,46.55-2.41,1.29.3,2.57.6,3.87.9,2.34-14.53-5.75-24.16-20.19-24.52-9.29-.23-17.59,2.81-25.76,6.8-7.54,3.68-11.69,1.12-12.58-7.19-.34-3.16,1.28-5.18,3.65-6.25,16.74-7.54,34.01-11.13,51.86-4.43,11.66,4.38,17.15,13.95,18.16,25.88,1.31,15.44.61,30.94.33,46.41-.09,4.76.62,7.28,6.05,6.28,1.74-.32,3.66-.02,5.45.3,3.99.72,5.41,3.48,5.29,7.26-.11,3.6-1.78,6.44-5.43,6.66-6.3.37-12.64.29-18.95-.03-3.34-.17-5.27-2.65-5.9-5.89-.43-2.24-.61-4.52-1.02-7.74-8.41,8.45-18.3,12.79-29.1,15.28-.31-.19-.59-.15-.84.12-9.32,1.71-18.09-.66-26.81-3.53-.7-1.03-1.25-2.31-2.89-1.91ZM805.6,190.77c-9.23-.03-16.18.39-22.78,3.02-8.24,3.29-12.47,9.53-11.73,17.12.74,7.55,6.18,13.04,14.94,14.32,13.21,1.93,24.49-2.72,34.45-11.07,4.34-3.64,6.7-13.92,4.84-19.23-.59-1.69-1.98-1.52-3.19-1.85-6.13-1.66-12.39-2.37-16.52-2.32Z"/>
      <path class="cls-5" d="M246.05,146.08c1.98.09,3.97.24,5.95.27,6.81.08,8.31,1.51,8.3,8.14-.03,21.28.07,42.57-.22,63.84-.06,4.69.51,7.31,5.99,6.27,1.54-.29,3.27.41,4.91.65,1.69,1.6,2.92,3.48,3.37,5.8-.09,1-.17,2-.26,3-1.86,3.72-4.94,5.07-9,4.91-3.99-.16-7.99,0-11.98-.07-6.25-.11-7.88-1.84-7.9-8.18,0-1.82,0-3.64,0-5.44-1.9-.72-2.42.94-3.29,1.7-6.52,5.68-13.94,9.58-22.36,11.59-17.48,4.17-31.33-4.83-34.53-22.46-.69-3.78-.99-7.58-.99-11.42.02-13.15-.15-26.3.08-39.45.06-3.69-.8-4.99-4.63-4.62-4.22.4-8.15-.38-8.82-5.76-.61-4.86,1.91-8.22,6.8-8.45,5.15-.25,10.32-.2,15.48-.07,4.32.11,6.05,2.57,6.02,6.85-.09,16.65-.03,33.29-.02,49.94,0,3.16.14,6.3.9,9.41,2.3,9.46,8.96,13.91,18.54,12.15,10.06-1.84,17.94-7.58,25.24-14.33,1.36-1.26,1.62-2.72,1.62-4.48-.06-13.82-.12-27.63-.02-41.45.02-2.71-.6-4.02-3.53-3.67-1.48.18-2.99.04-4.49.04-3.36,0-6.96.2-8.69-3.46-1.73-3.67-.79-7.12,1.86-10.12h.4s.26-.3.26-.3c4.95-1.23,10.03-.02,15-.82Z"/>
      <path class="cls-5" d="M333.06,118.21c-8.45-.09-16.9-.16-25.35-.28-1.93-.03-4.06.29-5.06-2.07-3.48-8.74-.82-12.58,8.58-12.49,9.66.09,19.33.08,28.99.2,7.62.1,9.33,1.91,9.44,9.55.03,2.32.2,4.64.3,6.96-.09,15.28-.22,30.57-.25,45.85-.03,18.12.12,36.24,0,54.36-.02,3.18.72,4.25,4.07,4.13,7.97-.28,15.96-.11,23.94-.15,9.8-.05,11.93,2.72,9.6,12.55-1.96,1.83-4.32,2.16-6.91,2.16-25.76-.05-51.51-.09-77.27.01-3.94.02-6.79-1.1-8.23-4.93.28-7.5,1.21-8.78,7.26-9.92,4.24.54,8.49.53,12.74,0,5.41,0,10.83.01,16.24.02.59.46,1.18.46,1.77,0,1.23.08,1.8-.47,1.79-1.73-.3-34.49.44-68.98-.49-103.47.02-.86-.47-.94-1.15-.76Z"/>
      <path class="cls-16" d="M766.12,234.98c1.65-.4,2.19.88,2.89,1.91.05,1.75-.62,3.85,2.17,4.21.66.09,1.52.43,1.3,1.2-1.39,4.88,2.33,3.24,4.58,3.85,2.66.72,4.93.55,6.78-1.53,1.92-2.15,3.86-1.52,5.74-.17,1.71,1.23,3.56,2.4,5.45,1.1,1.75-1.2.69-3.38.79-5.14.25-.27.53-.31.84-.12q1.55,2.33,11.96,3.88c-5.46,1.29-9.37,2.76-10.11,8.19-.29,2.16-2.79,1.82-4.64,1.16-1.11-.4-2.06-.1-2.38,1.04-.31,1.11.93,1.04,1.44,1.53,2.06,1.99,4.12,3.4,7.23,3.75,2.5.29,4.49,2.47,3.49,5.55-.97,2.98.64,3.62,2.97,3.59,2.47-.03,5,.48,7.41-.52,1.41-.59,2.64-.3,3.61.81,2.12,2.39,3.9,3.78,6.7.37,1.38-1.69,7.28,2.21,6.98,4.58-.45,3.64-.92,7.11,1.24,10.56,1.06,1.68.28,3.75-2.1,4.11-4.53.68-8.96,1.22-13.44-1.05-5.58-2.83-10.67-1.31-14.91,3.75-2.16,2.57-5.21,1.93-7.3.96-2.03-.95-5.11-.64-6.14-3.55-.14-.4-1.43-.88-1.6-.72-5.58,5.48-7.21-1.97-10.56-3.39-1.7-.72-2.69-2.16-4.64-.46-3.07,2.68-6.18.63-7.54-1.61-1.67-2.77-3.19-2.01-5.59-2.09-5.38-.19-10.9,2.11-16.36-1.59-1.53-1.04-6.61-1.46-8.58-.39-4.23,2.28-6.55-.62-8.52-2.35-1.69-1.49-4.05-4.04-2.01-7.73,1.17-2.11.77-5.42.26-8.03-.52-2.69.59-4.04,2.67-4.4,3.86-.67,4.35-4.86,4.06-6.31-.77-3.84,1.29-7.21.68-10.82,1.6-.9,3.21-1.79,4.81-2.69.07,1.99.2,3.98.18,5.97-.02,1.9.82,3.07,2.5,3.9,1.74.86,3.15.86,4.32-.85,1.18-1.73,2.51-1.75,3.35.13,1.13,2.52,3.15,2.76,5.37,2.44,4-.58,7.47,1.02,11.02,2.36,1.61.61,3.18,1.14,4.63-.26.68-.67.51-1.46.17-2.29-.72-1.72-2.17-1.78-3.72-1.79-3.09-.02-5.95-.67-7.65-3.59-1.31-2.25-2.55-.34-3.75,0-1.27.37-2.82,1.24-3.57-.15-.79-1.46.9-2.29,1.92-3.02,1.96-1.4,3.51-4.58,6.63-1.79.12.1.3.13.46.2,1.66-4.6,5.94-.97,8.51-2.72Z"/>
      <path class="cls-5" d="M543.13,227c-4.01-8.91-5.01-18.64-4.57-27.95.52-11.02.39-21.99.39-32.99,1.03-3.94-.15-5.9-4.53-5.22-1.45.23-2.95.17-4.43.24-7.95-.82-9.88-4.21-7-11.39,1.47-3.67,4.76-2.64,7.27-3.55,1.32-.48,2.99-.29,4.45-.05,4.35.71,5.19-1.36,4.24-5.03,0-3,0-6,0-9,.12-4.14.44-8.29.29-12.42-.07-1.92.67-3.07,1.89-4.2,6.41-3.43,9.54-2.8,13.07,2.62,0,8.16.14,16.32-.11,24.47-.1,3.29.82,4.28,4.15,4.2,11.15-.29,22.3-.25,33.46-.35,5.91-.05,8.26,1.8,8.38,6.68.13,5.58-2.18,7.79-8.4,7.81-11.32.04-22.64.08-33.96-.06-2.72-.03-3.73.57-3.69,3.54.17,13.98-.1,27.97.17,41.95.31,15.67,9.59,22.19,24.64,17.65,6.33-1.91,11.76-5.37,16.53-9.92,1.08-1.03,2.12-2.13,3.27-3.07,2.72-2.24,5.73-2.87,8.67-.61,3.02,2.32,2.83,5.49,1.41,8.59-2.06,4.52-5.71,7.72-9.5,10.75-1.4,1.12-2.88,2.13-4.32,3.18-5.36,3.07-11.18,5.03-16.97,7.04-8.16,1.27-16.2,1.08-23.98-2.03-.56-.22-1.03-.66-1.54-1-3.79-2.66-6.82-6.02-9.3-9.9Z"/>
      <path class="cls-5" d="M462.98,224.09c9.79.09,19.58.13,29.37.27,6.93.1,9.63,3.91,8.06,10.69-1.05,4.52-4.67,3.83-7.57,3.88-12.46.19-24.92.06-37.38.07-1.82,0-3.64.13-5.46.2-11.09-.09-22.18-.23-33.26-.25-2.71,0-5.27-.2-7.46-1.99-4.23-8.05-1.36-12.66,7.91-12.66,8.66,0,17.33-.08,25.99.08,2.75.05,3.71-.6,3.69-3.56-.11-18.82-.1-37.65.07-56.47.03-3.09-1.17-3.53-3.79-3.46-5.99.14-12-.18-17.99.07-5.24.22-6.38-3.74-6.82-7.16-.45-3.52,1.6-7.1,5.68-7.22,10.65-.33,21.32-.45,31.97-.02,4.34.17,6.1,3.51,6.06,8.08-.16,21.16-.08,42.31-.07,63.47,0,1.66.1,3.32.15,4.98-.16.7-.03,1.16.83,1.01Z"/>
      <path class="cls-13" d="M205.19,646.83c7.68,2.04,15.27,4.45,23.04,6.04,32.15,6.59,64.69,10.42,97.37,13.2,24.59,2.09,49.14,2.8,73.75.21,22.73-2.39,43.97-8.64,62.59-22.39,5.35,2.21,11.47,1.34,16.66,4.18,1.59.87,3.33,1.56,4.76,2.65,3.55,2.71,3.45,5.25-.3,7.75-8.22,5.48-17.81,7.27-27.16,9.34-19.29,4.27-38.88,6.24-58.63,7.4-16.15.95-32.29,1.09-48.38.51-25.34-.91-50.6-3.02-75.66-7.39-16.51-2.88-33.04-5.56-49.09-10.45-4.9-1.5-9.63-3.61-14.34-5.67-2.27-.99-4.46-2.39-4.6-5.37Z"/>
      <path class="cls-13" d="M581.02,643c23.35,17.76,50.61,22.6,78.95,23.87,29.22,1.3,58.25-1.12,87.22-4.43,25.8-2.94,51.6-6.11,76.86-12.42,4.67-1.17,9.25-2.7,13.87-4.07.21,2.41-1.2,3.23-3.22,4.29-13.88,7.33-29.11,10.3-44.19,13.47-17.35,3.65-34.91,6.11-52.52,8.31-29.82,3.73-59.76,3.4-89.67,2.75-24.58-.54-48.93-3.76-72.76-10.17-5-1.35-9.75-3.39-14.22-5.99-4.11-2.39-4.24-5.19-.52-8.1,4.8-3.75,10.57-4.61,16.34-5.47,1.54-.23,3.54.48,3.85-2.04Z"/>
      <path class="cls-4" d="M330.36,523.99c2.18,1.05,4.2,1.09,5.89-.93-3.36,24.74.68,48.31,10.95,70.98,1.06,2.35,4.61,5.67,1.05,7.71-3.57,2.04-3.46-3.41-5.99-4.91-7.49,8.23-17,12.85-28.09,14.29.31-3.26-1.2-4.15-4.39-4.25-4.53-.14-8.86,1.25-13.35,1.16-1.44-.03-3.98-.94-4,1.49-.02,2.23,2.43,2.32,4.24,2.42,3.31.18,6.63.26,9.94.38-14.09,1.96-27.74-.77-41.34-3.96-2.06-.48-4.07-1.64-6.22-.33-.47-4-3.57-2.83-5.97-3.03-1.28-2.48-4.41-2.41-6.05-4.39.03-2.94.05-5.87.08-8.81,9.86,7.29,20.17,10.84,31.75,3.82.79,2.02,2.37,3.76,2.18,6.13-1.72.5-3.45,1-5.67,1.65,1.01.59,1.51,1.08,2.07,1.18,16.96,2.97,33.73,3.1,49.92-3.78,4.01-1.7,7.43-4.36,10.38-7.61,2.43-2.67.58-5.06-.57-7.29-1.41-2.73-2.64.52-4.03.43-.69-1.39,2.35-3.88-1.3-4.4,1.02-1.62,3.81-2.19,2.53-5.15-3.02-6.98-3.57-14.58-5.05-21.94-.14-1.62-.27-3.24-.41-4.85-.16-10.64-2.37-20.68-8.76-29.46-3.08-7.16-8.65-12.32-14.09-17.59,1.72-1.59,4.1,1.25,5.75-.84,1.37,1.09,2.74,2.17,4.11,3.26,4.88,5.97,9.6,12.03,12.74,19.18,1.23,2.81,1.18-.15,1.69-.54Z"/>
      <path class="cls-5" d="M443.72,119.92c-.18-4.28-.36-8.56-.54-12.85,2.06-7.42,10.42-10.69,17.27-6.76,2.45,1.4,3.17,3.74,3.36,6.31.18,2.48.21,4.97.31,7.46-.29,5.22-.23,10.65-7.11,11.96-5.18-.4-11.13.86-13.28-6.11Z"/>
      <path class="cls-16" d="M663.14,218.05c0-5,0-10,0-15,4.36-.09,4.65,3.51,5.05,6.3.24,1.71.14,3.51,1.64,4.3,1.89.98,2.87-1.04,4.09-2.05.89-.74,1.65-1.81,2.67-2.17,2.49-.87,5-.01,5.9,2.26,1.2,3.05-2.06,2.25-3.42,2.73-3.15,1.11-6.76.44-9.36,3.75-.82,1.04-4.3-.03-6.57-.13Z"/>
      <path class="cls-7" d="M247.12,591.8c-.03,2.94-.05,5.87-.08,8.81-6.23-3.61-11.24-8.46-15-14.6,1.63-2.13,5.32.25,6.46-2.96,2.87,2.92,5.75,5.84,8.62,8.76Z"/>
      <path class="cls-4" d="M238.5,583.04c-1.13,3.21-4.83.83-6.46,2.96-.45-.68-.9-1.36-1.35-2.04.06-4.46-3.36-7.98-3.35-12.47,0-2.05-1.09-4.24,1.31-5.71,2.67,6.1,5.79,11.95,9.85,17.26Z"/>
      <path class="cls-6" d="M253.09,605c2.4.2,5.5-.97,5.97,3.03-2.71,3.23-5.98,5.67-9.96,7.13-.79-1.97-1.58-3.95-2.37-5.92l6.35-4.24Z"/>
      <path class="cls-16" d="M690.63,212.16c2.23,4.2,6.34,6.76,9.13,10.52,2.29,3.09.22,2.98-1.79,3.3-.36-2.61-1.72-2.84-4.2-2.49-3.88.55-5.18-1.44-4.16-5.07.57-2.02.69-4.17,1.02-6.26Z"/>
      <path class="cls-4" d="M246.74,609.24c.79,1.97,1.58,3.95,2.37,5.92-2.71,1.53-5.43,3.06-8.14,4.59-.64.05-1.28.11-1.93.16,0-2.26,0-4.52.01-6.79,2.56-1.29,5.13-2.59,7.69-3.88Z"/>
      <path class="cls-16" d="M231.05,146.91l-.26.31h-.4c-2.66-.34-3.23-3.02-4.72-4.57-1.45-1.5.01-2.86,1.81-3.58,2.16-.88,4.11-.75,6.49,1-4.83.88-3.35,4.03-2.91,6.84Z"/>
      <path class="cls-16" d="M683.02,221.32c-2.67.94-4.67,1.22-6.56-.04-.44-.29-.46-1.35.24-1.7,2.18-1.08,4.08-.49,6.32,1.74Z"/>
      <path class="cls-16" d="M726.64,250.09c-.15,1.07-.84,1.68-1.91,1.78-.95.09-1.64-.37-1.33-1.41.27-.88.51-2.03,1.74-2.02.89,0,1.39.68,1.5,1.65Z"/>
      <polygon class="cls-6" points="796.22 600.13 796.63 599.94 796.5 600.23 796.22 600.13"/>
      <path class="cls-15" d="M631.35,228.07c-1.31,8.26.76,10.95,8.88,10.84,6.58-.09,13.23.88,19.75-.79,3.9,3.05,2.52,8.16,4.62,12.01,1.13,2.06-4.29,6.76-6.83,6.33-3.75-.63-9.09,1.9-10.92,5.29-.62,1.14-1.4,1.37-2.41.86-.99-.5-1.31-1.27-.86-2.46,1.29-3.39,1.24-3.41-.74-7.02-1.75,3.06-3.56,5.61-6.73,1.39-.84-1.12-2,.29-2.09,1.64-.28,3.86-1.84,2.9-4.13,1.38-3.31-2.19-6.19-5.34-11.13-4-1.95.53-3.06-1.3-1.88-4.09,1.74-4.1,5.8-5.6,8.33-8.75,1.19-1.49,1.81-2.43,1.11-4.27-1.22-3.18.79-6.16.87-9.29.02-.83.73-1.63,1.61-1.66,1.68-.06,2.1,1.34,2.57,2.6ZM647.07,244.34c-1.09.33-1.07,1.29-.93,2.3.1.76.67,1.2,1.33,1.16,1.29-.08,1.5-1.09,1.39-2.12-.1-.88-.58-1.51-1.79-1.34Z"/>
      <path class="cls-15" d="M586.76,302.18c-5.03-.38-7.75-5.08-12.14-6.69-.97-.36-.22-1.68.08-2.64,1.33-4.23,5.32-4.43,8.54-5.57,1.74-.62,2.87,1.33,3.9,2.57,1.25,1.49.08,2.38-1.04,3.19-.73.53-1.22,1.2-.74,2.08.59,1.09,1.72,1.04,2.61.69,2.73-1.07,5.54-.82,8.34-.69,1.26.05,2.21.72,2.44,2.06.21,1.23-.66,2.05-1.6,2.15-3.59.41-6.6,2.96-10.4,2.84Z"/>
      <path class="cls-15" d="M577.95,239.92c5.8-2.01,11.61-3.98,16.97-7.04-.96,2.6,4.89,3.11,2.04,5.94-1.54,1.53-4.21,1.87-6.05,3.19-3.16,2.28-7.04,2.62-10.38,4.35-1.61.83-2.18-.44-2.36-1.52-.27-1.61-.16-3.28-.21-4.92Z"/>
      <path class="cls-15" d="M597.06,244.93c2.97-2.42,3.79-6.61,7.99-8.18,1.96-.74,4.24-2.69,1.14-5.2-1.1-.89-1.28-1.94-.07-2.89.89-.7,1.96-.71,2.64.23,2.27,3.13,4.98,2.64,7.83,1.06.76-.42,1.56-.9,2.05.11.23.47.1,1.41-.24,1.83-1.34,1.67-2.77,4.52-4.27,4.59-6.53.32-9.09,6.86-14.58,8.54-.58.18-1.11.53-1.66.8-.27-.29-.55-.59-.82-.88Z"/>
      <path class="cls-15" d="M443.72,119.92c2.16,6.98,8.1,5.71,13.28,6.11.3,2.81-1.61,4.65-3.13,6.51-1.59,1.95-3.47,2.26-5.31-.17-2.08-2.76-4.49-5.28-6.69-7.96-.89-1.08-2.91-1.84-2.22-3.49.68-1.62,2.69-.61,4.06-1Z"/>
      <path class="cls-15" d="M543.13,227c2.48,3.88,5.51,7.24,9.3,9.9-.78.24-1.69.3-2.31.75-2.87,2.06-5.71,2.26-7.61-.92-1.9-3.17-4.13-6.79.63-9.72Z"/>
      <path class="cls-15" d="M547.66,272.08c-3.23-.13-4.91-2.34-6.2-4.56-1.09-1.87.29-3.02,2.22-3.42,2.74-.58,7.66,2.61,7.77,5.38.1,2.59-2.34,2.13-3.79,2.61Z"/>
      <path class="cls-15" d="M462.47,264.01c2.3.1,4.88.08,4.96,2.1.09,2.37-2.47,3.64-4.63,3.49-1.72-.12-4.59-.24-4.5-2.92.1-2.64,2.78-2.26,4.17-2.67Z"/>
      <path class="cls-15" d="M538.96,132.07v9c-2.74.34-4.77-.67-4.82-3.54-.05-3.02,1-5.6,4.82-5.46Z"/>
      <path class="cls-15" d="M530,161.09c1.48-.07,2.97-.01,4.43-.24,4.37-.69,5.56,1.27,4.53,5.22-2.98-1.66-5.97-3.32-8.95-4.98Z"/>
      <path class="cls-15" d="M667.96,243.59c.18-1.24-.09-3,1.86-2.83,1.45.13,3.18.85,2.73,2.79-.36,1.53-1.03,3.47-3.15,3.25-1.88-.19-1.28-1.97-1.45-3.21Z"/>
      <path class="cls-15" d="M457.87,256.37c-.12,1.64-1.41,2.2-2.66,2.3-1.27.1-2.92-.37-2.72-1.97.18-1.46,1.5-2.53,3.15-2.5,1.27.02,2.03.87,2.23,2.17Z"/>
      <path class="cls-15" d="M450.6,268.17c.09,1.03-.15,1.66-1,1.44-.84-.21-1.38-.9-1.42-1.81-.03-.68.23-1.55,1.02-1.22.65.27,1.04,1.15,1.4,1.59Z"/>
      <path class="cls-15" d="M450.04,262.09c.28.7.53,1.07.53,1.44,0,.25-.32.6-.58.71-.7.3-.9-.26-.82-.75.06-.39.43-.72.87-1.4Z"/>
      <path class="cls-15" d="M593.71,248.48c.27.12.55.24.82.35-.12.27-.18.7-.37.78-.2.08-.53-.19-.81-.31.12-.27.24-.55.36-.82Z"/>
      <path class="cls-3" d="M462.98,224.09c-.86.14-.99-.32-.83-1.01.28.34.56.67.83,1.01Z"/>
      <path class="cls-8" d="M239.04,619.91c.64-.05,1.28-.11,1.93-.16,6.23,4.19,13.38,5.83,20.61,6.06,9.43.3,18.86.22,28.34-.65,19.37-1.77,37.49-8.26,55.81-13.86,7.85-2.4,12.65-8.51,8.94-18.86-2.52-7.02-5.51-13.91-7.52-21.08-4.61-16.47-7.92-33.18-7.17-50.44.07-1.56.52-3.5-1.92-3.93,3.98-20.11,13.87-36.54,30.4-48.81,4.42-3.28,4.79-3.1,5.53,1.98.16,1.08.55,2.3,1.4,2.31,1.18,0,1.97-1.23,2.25-2.39,2.31-9.59,3.18-19.29,2.04-29.12-.36-3.12-.98-6.21-1.29-9.33-.33-3.25-1.49-5.93-3.63-8.51-2.94-3.53-3.69-7.72-1.65-12.12,7.78-2.14,14.51-.82,19.56,5.97.47,1.77-.07,3.58-1.18,4.65-5.57,5.36-3.45,11.08-1.52,17.13,2.58,8.12,6.22,15.71,10.56,22.98.92,1.55,1.61,4.52,3.91,3.66,2.5-.93.11-3.53.49-5.35,7.3-.23,14.6-.41,21.87.4,8.01.89,15.92,2.63,24.04,2.66,4.33.01,6.61-1.66,6.14-6.22,7.81-7.93,9.25-18.3,10.73-28.58.33-2.33-1.44-4.33-2.26-6.48-.71-1.88-1.23-3.78-.42-5.78.63-.19,1.35-.23,1.86-.59,7.48-5.17,11.46-4.58,17.12,2.59.65,2.67-.06,5.28-1.95,6.89-4.23,3.59-5.04,8.42-5.73,13.37-1.65,11.74-2.3,23.52-.84,35.34-2.62,2.03-.33,3.07.96,4.07,3.37,2.59,6.88,5.01,10.29,7.56,3.22,2.4,4.36,5.18,1.31,8.57-12.95.88-17.71,4.45-20.92,15.69-2.74,9.63,2.29,20.29,11.59,24.56,9.69,4.45,19.02,1.58,24.96-7.66.35-.54.74-1.05,1.69-2.4,1.19,5.03,1.81,9.29,1.46,13.7-3.48.14-7.01.02-10.44.5-3.81.53-7.11,2.35-7.94,6.49-.49,2.44,4.56,6.02,8.59,6.26,3.15.18,6.32.1,9.47.13-2.7,28.5-15.25,52.37-34.44,73.1-3.5-.44-7.29-.24-9.19-4.2.42-1.41.85-2.82,1.27-4.23,2.03-6.77,4.34-13.5,2.06-20.7-.06-.83-.16-1.65-.17-2.48-.33-13.84-9.27-22.93-22.94-22.54-14.89.43-24.17,9.54-30.8,21.74-2.96,5.45-4.89,11.46-7.29,17.22-3.28,5.47-6.64,10.88-9.04,16.82-.31.39-.61.78-.92,1.17,0,0,0,.01,0,.01-2.26,1.23-3.63,3.3-5.23,5.22-8.75,10.48-18.91,17.32-33.65,16.96-23.56-.58-47.1-.36-70.61-3.02-19.74-2.23-39.4-4.84-58.93-8.36-6.12-1.1-12.54-2.34-17.56-6.72,7.92-4.13,16.91-5.28,24.98-8.99,1.65-.76,3.32-1.47,4.98-2.2ZM384.09,541.35c1.47-.25,2.96-.43,4.41-.76,11.26-2.57,18.59-13.3,17.49-25.55-1.01-11.29-10.3-20.5-21.11-20.95-12.72-.53-22.61,6.79-24.54,18.58-1.53,9.4,1.12,17.62,8.18,24.23-2.53.72-5.23,1.09-7.56,2.23-4.77,2.35-5.23,6-1.03,9.21,5.06,3.86,10.95,5.14,17.24,3.72,7.08-1.6,8.68-4.15,6.92-10.71ZM457.96,526.77c-.29-1.19.62-3.66-2.09-3.85-2.27-.15-2.1,2.14-2.6,3.63-.1.31-.08.66-.16.98-1.28,5.44-3.6,6.62-8.57,4.13-2.02-1.01-3.81-1.65-6.11-.69-7.22,2.99-8.79,2.39-12.11-4.32-.74-1.49-1.23-3.49-3.4-2.77-2.24.74-1.94,2.85-1.62,4.67,1.3,7.28,9.05,11.44,16.13,8.47,2.29-.96,4.07-1.23,6.5-.14,7.42,3.33,14.05-1.37,14.03-10.11Z"/>
      <path class="cls-12" d="M338.06,516.99c2.44.43,1.99,2.36,1.92,3.93-.75,17.26,2.56,33.97,7.17,50.44,2.01,7.17,5,14.05,7.52,21.08,3.72,10.36-1.08,16.46-8.94,18.86-18.31,5.6-36.44,12.09-55.81,13.86-9.48.86-18.92.94-28.34.65-7.23-.23-14.38-1.86-20.61-6.06,2.71-1.53,5.43-3.06,8.14-4.59,3.97-1.46,7.25-3.9,9.96-7.13,2.15-1.3,4.16-.15,6.22.33,13.6,3.19,27.24,5.92,41.33,3.96,2.18-.06,4.39.16,6.47-.75.36-.16.72-.33,1.08-.49v.04c11.09-1.44,20.61-6.05,28.09-14.29,2.53,1.5,2.43,6.95,5.99,4.91,3.57-2.04.02-5.36-1.05-7.71-10.27-22.66-14.32-46.23-10.95-70.98.6-2.02,1.2-4.05,1.81-6.07Z"/>
      <path class="cls-12" d="M209.08,631.09c5.03,4.38,11.44,5.62,17.56,6.72,19.53,3.52,39.19,6.12,58.93,8.36,23.51,2.66,47.05,2.44,70.61,3.02,14.73.37,24.9-6.48,33.65-16.96,1.6-1.91,2.97-3.99,5.23-5.22.36,1.66-.66,2.74-1.54,3.96-3.99,5.54-9.06,9.94-14.42,14.06-5.16,3.61-10.71,6.53-16.43,9.14-5.57,2.54-11.69,3.33-17.77,5.29,1.86.91,3.73-.12,5.07,1.24-16.99.1-33.85-1.8-50.66-3.9-25.4-3.17-50.95-5.47-75.86-11.85-5-1.28-10.04-2.46-14.69-4.78-2.02-1.01-4.89-1.67-4.82-4.45.07-2.88,2.65-3.93,5.13-4.64Z"/>
      <path class="cls-10" d="M238.5,583.04c-4.06-5.31-7.18-11.16-9.85-17.26-1.35-5.25-3.61-10.28-3.68-15.83,1.32.02,2.63.03,3.95.05,4.42,8.98,12.65,12.84,21.45,15.92.86-.17,1.61-.1,1.92.89-.55.34-1.26.87-.75,1.44.83.92,1.32-.06,1.8-.66,5.49,3.22,11.33,4.99,17.76,4.44.36,2.53,2.36,1.9,3.89,1.91,5.65.04,11.31-.03,16.96-.05-1.68,8.86-6.18,16.01-13.08,21.72-11.58,7.02-21.89,3.47-31.75-3.82-2.87-2.92-5.75-5.84-8.62-8.76Z"/>
      <path class="cls-14" d="M315.93,505.35c-1.37-1.09-2.74-2.17-4.11-3.26-1.79-2.36-4.17-3.99-6.7-5.43-.3-2.08.6-3.82,1.39-5.67,5.51-12.97,15.64-21.36,27.57-28,7.47,1.46,13.81,4.52,17,12.02-1.61,2.64-3.48,5.07-5.94,6.99-14.36,1.99-22.03,12.35-29.2,23.34Z"/>
      <path class="cls-13" d="M349.96,660.7c-1.33-1.36-3.21-.33-5.07-1.24,6.08-1.96,12.2-2.75,17.77-5.29,5.72-2.61,11.27-5.52,16.43-9.14.4,2.91,2.73,1.94,4.32,1.95,8.26.06,16.49.53,24.78.3,11.99-.33,23.79-1.63,35.57-3.56l-1.69,3.4c-8.3,5.74-17.97,7.65-27.54,9.74-21.32,4.66-42.91,4.93-64.58,3.83Z"/>
      <path class="cls-11" d="M315.93,505.35c7.16-10.99,14.84-21.35,29.2-23.34-5.86,10.52-11.06,21.31-13.52,33.21-.6,2.9-1.44,5.77-1.24,8.78-.51.39-.46,3.35-1.69.54-3.14-7.15-7.85-13.21-12.74-19.18Z"/>
      <path class="cls-3" d="M351.06,475.01c-3.19-7.51-9.53-10.57-17-12.02-7.4-4.35-15.43-6.2-23.96-6.02-8-1.98-15.85.2-23.75.91-.61.05-1.34.43-1.73.9-3.63,4.28-8.55,4.28-13.51,4.16l-.95-1.71c29.35-14.24,57.65-12.55,84.95,5.46,2.39,1.58,2.47,2.6.31,4.29-1.55,1.21-2.91,2.68-4.35,4.03Z"/>
      <path class="cls-11" d="M270.15,461.23c.32.57.63,1.14.95,1.71-3.9,8.84-3.91,18.1-2.96,27.46-3.62,1.68-7.24,3.37-10.85,5.05-1.68-2.63-2.66-5.42-3.35-8.53-1.16-5.25-.79-10.33.03-15.49,4.89-4.21,10.24-7.68,16.19-10.2Z"/>
      <path class="cls-14" d="M253.95,471.42c-.81,5.16-1.19,10.25-.03,15.49.69,3.11,1.68,5.9,3.35,8.53-2.78,2.51-5.57,5.02-8.36,7.54-2.06-.14-2.78-1.91-4.05-3.11-2.98-2.8-3.44-7.92-8.26-8.98,4.27-7.84,10.05-14.33,17.34-19.47Z"/>
      <path class="cls-11" d="M228.91,550.01c-1.32-.02-2.63-.03-3.95-.05-1.58-7.96-2.16-15.94-.73-23.99,5.05.95,8.72,5.05,13.76,6.01.08,6.05.96,11.98,2.42,17.84-3.83.07-7.66.13-11.49.2Z"/>
      <path class="cls-14" d="M237.99,531.97c-5.04-.96-8.71-5.06-13.76-6.01.11-7.34,2.35-14.17,4.92-20.93,3.06,4.85,7.34,8.13,12.74,9.99-1.3,5.65-2.6,11.3-3.9,16.95Z"/>
      <path class="cls-15" d="M456.98,456.88c.47,4.56-1.81,6.23-6.14,6.22-8.12-.03-16.03-1.77-24.04-2.66-7.27-.81-14.57-.63-21.87-.4-3.36-3.46-1.57-4.43,2.18-4.76,12.48-1.1,24.85-.46,37.11,2.1,4.31.9,8.55.85,12.76-.5Z"/>
      <path class="cls-11" d="M241.89,515.02c-5.39-1.87-9.68-5.15-12.74-9.99,1.98-4.98,4.12-9.87,7.46-14.13,4.82,1.06,5.28,6.18,8.26,8.98,1.28,1.2,1.99,2.97,4.05,3.11-2.75,3.78-5.04,7.82-7.04,12.04Z"/>
      <path class="cls-9" d="M506.51,551.1c-3.16-.03-6.32.05-9.47-.13-4.03-.23-9.08-3.82-8.59-6.26.83-4.14,4.13-5.96,7.94-6.49,3.44-.48,6.96-.35,10.44-.5.63,4.47.43,8.93-.32,13.38Z"/>
      <path class="cls-11" d="M462.88,620c1.9,3.95,5.69,3.75,9.19,4.2-6.55,7.18-13.12,14.34-21.9,18.94.12-.96-.1-2.22.43-2.85,5.19-6.11,8.13-13.57,12.28-20.29Z"/>
      <path class="cls-12" d="M462.88,620c-4.16,6.72-7.1,14.17-12.28,20.29-.53.62-.3,1.88-.43,2.85,0,0-.02-.07-.02-.07-.99,0-1.8.27-2.07,1.37-1.72,1.53-3.62,2.65-6,2.71.56-1.13,1.13-2.27,1.69-3.4,4.49-4.67,8.62-9.63,12.07-15.13,6.44-10.25,8.57-21.84,10.37-33.53,2.28,7.19-.03,13.93-2.06,20.7-.42,1.41-.85,2.82-1.27,4.23Z"/>
      <path class="cls-3" d="M499.56,505.32c-.78,3.68-2.69,5.79-6.25,5.3-3.64-.5-5.56-2.98-5.11-6.63.4-3.16,2.57-5.12,5.83-4.79,3.63.37,5.34,2.84,5.53,6.12Z"/>
      <path class="cls-3" d="M488.05,493.84c3.04-3.39,1.91-6.17-1.31-8.57-3.41-2.54-6.92-4.96-10.29-7.56-1.29-.99-3.58-2.03-.96-4.07,4.47-1.21,6.84,1.64,9.21,4.66,4,5.09,7.91,10.22,11,16.7-2.94-.45-5.3-.8-7.65-1.16Z"/>
      <path class="cls-3" d="M484.01,418.04c-5.66-7.17-9.64-7.76-17.12-2.59-.51.35-1.24.4-1.86.59.59-6.26,4.18-9.98,9.44-9.76,5.97.24,9.45,4.53,9.55,11.77Z"/>
      <path class="cls-15" d="M392.67,416.98c-5.05-6.8-11.78-8.12-19.56-5.97,1.29-4.78,4.78-6.42,9.3-6.17,5.12.28,8.55,2.87,9.79,8.02-.3.8-.41,1.56.42,2.15.02.66.04,1.32.06,1.98Z"/>
      <path class="cls-8" d="M392.61,414.99c-.82-.58-.71-1.35-.42-2.15.74.6.7,1.35.42,2.15Z"/>
      <path class="cls-11" d="M448.08,644.43c.27-1.1,1.08-1.37,2.07-1.37-.69.46-1.38.91-2.07,1.37Z"/>
      <path class="cls-15" d="M274.34,231.05c-.45-2.32-1.68-4.2-3.37-5.8,1.04-2.35,2.61-2.41,4.75-1.39,2.31,1.1,2.95,3.23,2.86,5.2-.12,2.48-2.55,1.84-4.24,1.99Z"/>
      <path class="cls-12" d="M314.91,224.14c-4.25.52-8.49.53-12.74,0,4.25-1,8.49-.97,12.74,0Z"/>
      <path class="cls-12" d="M332.92,224.17c-.59.45-1.19.45-1.77,0,.6-.7,1.19-.71,1.77,0Z"/>
      <path class="cls-3" d="M333.06,118.21c.67-.18,1.17-.1,1.15.76-.38-.25-.76-.51-1.15-.76Z"/>
      <path class="cls-2" d="M537.89,537.93c-.45-4.62.09-9.13,1.46-14.53,3.1,6,6.79,10.26,12.82,11.77,7.84,1.96,14.66,0,19.78-6.11,5.81-6.92,6.91-15.07,3.46-23.37-3.14-7.57-9.25-11.46-17.51-11.8-.99-.04-1.98-.1-2.97-.15-.72-1.95-.45-3.51.76-5.44,3.16-5.02,8.43-7.26,12.89-10.55,3.16-2.33,3.49-7.71.46-10.71.05-1.74.1-3.47.15-5.21,1.39.11,2.64-.04,2.63-1.85-.01-1.81-1.27-1.94-2.65-1.79-.88-7.76-1.18-15.57-2.85-23.25-.73-3.37-1.84-6.22-4.5-8.59-3.08-2.75-4.26-6.27-2.81-10.37,1.08-.38,2.27-.57,3.21-1.16,4.91-3.11,9.56-4.66,13.82,1.1.77,1.04,1.03-.79,1.73-.92.91,1.93,1.03,4.18.1,5.81-4.43,7.77-1.38,15.16.85,22.55,1.09,3.62,2.85,7.04,4.3,10.54-.24,2.26.65,3.92,2.01,5.8,4.12,5.67,9.83,4.86,15.29,3.92,12.51-2.17,25-4.15,37.75-3.57.39,1.88-2.2,4.54.06,5.43,2.61,1.03,2.86-2.41,3.94-4.03,6.08-9.1,10.25-18.98,12.31-29.77.55-2.87.16-5.03-1.91-7.24-2.4-2.56-4.27-5.59-2.62-9.43,5.52-2.22,10.82-5.48,17.22-3.51.28.09.87-.81,1.32-1.25,2.5,5.15,2.02,9.94-1.87,14.21-.94,1.03-1.53,2.1-1.81,3.45-2.8,13.55-3.29,27.12-.62,40.77.32,1.65.52,3.18,2.3,3.12,2.39-.07,1.47-2.18,1.46-3.47-.04-3.81,1.71-2.65,3.59-1.41,11.05,7.27,19.69,16.71,25.74,28.49.94,1.83,1.9,3.66,2.84,5.48.19.37.38.74.57,1.11.53,1.51,1.06,3.03,1.59,4.54.01,3.48-.33,7,.1,10.42,1.47,11.74,1.24,23.46-.89,35.03-2.39,13.01-6.62,25.52-11.7,37.75-1.64,3.94-3.04,8.04-.54,12.23,3.82,7.95,11.08,9.44,18.82,10.01,5.73,1.58,11.14,3.98,16.62,6.24,2.9,1.19,5.96,2.08,9.02,2.74,8.43,1.81,17.04,2.28,25.58,3.23,8.16.91,16.3,1.14,24.38.62,6.79-.44,13.97-.84,19.52-5.91,10.45,2.87,20.77,6.12,30.81,10.23.36,2.1-.91,3.11-2.64,3.59-7.49,2.07-14.86,4.54-22.7,5.33-13.16,1.32-26.22,3.45-39.47,4.22-13.86.8-27.68,2.46-41.52,3.68-15.92,1.41-31.89.97-47.84,1-1.31,0-2.69-.23-3.82.74-4.28-1.28-7.6-4.23-11.25-6.6-1.83-1.19-2.92-3.7-5.71-3.1h0c-.54-3.58-3.48-5.11-6-7,0,0,0,0,0,0-.31-.47-.62-.93-.93-1.4-3.75-5.51-6.23-11.88-11.17-16.59-3.25-4.16-4.08-9.35-5.82-14.12-5.21-14.2-12.77-25.45-28.98-29.07-12.52-2.8-25.13,6.47-26.41,17.61-.43,3.75.75,7.18.19,10.75-2.97.55-1.81,2.89-1.59,4.37,1.45,9.43,4.43,18.36,9.49,26.49,3.3,5.3,6.78,10.5,10.19,15.74-10.63-3.82-18.73-11.22-25.98-19.39-16-18.04-27.13-38.75-32.49-62.4-.26-2.23-.51-4.47-.77-6.7-.08-.58-.15-1.16-.23-1.74-.01-.96-.03-1.92-.04-2.88,4.48.47,8.91.63,13.12-1.48,2.15-1.08,4.24-2.2,4.34-4.91.11-2.96-2.18-4.23-4.38-5.45-4.29-2.37-9.01-1.74-13.61-1.9ZM682.99,511.38c-.41-1.08-.8-2.17-1.24-3.24-3.6-8.82-13.03-14.64-22.99-14.22-9.65.41-17.01,6.27-20,15.93-4.66,15.06,3.69,28,20.18,31.28-1.26,5.65-.34,7.94,5.21,9.83,6.18,2.1,12.53,1.88,18.33-1.41,2.2-1.25,4.84-2.95,4.25-6.16-.54-2.93-3.08-4.21-5.62-5.15-2.12-.78-4.68-.38-6.34-2.4,1.53-1.64,3.06-3.28,4.6-4.92,4.06-1.14,8.46-9.04,8.63-15.17.1-3.62-1.13-5.42-4.99-4.38ZM609.76,537.93c6.15-.36,9.76-3.31,11.9-8,.98-2.15,2.38-5.19-.88-6.46-3.01-1.18-3.11,2.11-3.97,3.89-2.29,4.72-5.64,6.64-9.46,4.45-3.26-1.87-5.68-1.43-8.73.21-3.97,2.14-6.58.65-7.68-3.81-.32-1.29-.52-2.61-.8-3.9-.2-.9-.78-1.49-1.69-1.58-1.17-.11-1.97.64-2.21,1.63-1.65,6.76,2.73,14.64,9.53,13.65,5.01-.73,9.79-2.67,13.99-.07Z"/>
      <path class="cls-13" d="M675.92,647.69c1.13-.97,2.51-.73,3.82-.74,15.95-.03,31.92.41,47.84-1,13.84-1.23,27.65-2.89,41.52-3.68,13.25-.76,26.31-2.89,39.47-4.22,7.84-.79,15.21-3.25,22.7-5.33,1.74-.48,3-1.49,2.64-3.59.62.19,1.3.28,1.86.58,2.16,1.19,5.03,2.15,5.02,4.99-.02,3.02-3.12,3.6-5.36,4.48-16.03,6.35-32.97,9.12-49.87,11.48-36.25,5.06-72.6,9.4-109.29,9.79-19.39.21-38.55-1.5-57.35-6.47-4.82-1.27-9.63-2.66-13.84-5.49-.02-2.12-2.56-2.75-2.81-4.73,2.48.14,5.01,0,7.43.45,17.28,3.17,34.6,1.8,51.93.76,1.34-.08,2.21-.56,2.34-2,9.65,6.96,19.93,12.45,32.01,13.64-1.68-1.02-3.54-1.61-5.34-2.32-5.01-1.98-10.52-2.84-14.73-6.6Z"/>
      <path class="cls-3" d="M694.45,478.19c-1.37-1.43-2.77-2.84-4.12-4.3-5.29-5.74-5.34-5.84,1.6-9.93,27.29-16.1,55.13-15.76,83.33-2.55,1.32.62,2.45,1.63,3.68,2.46,1.8,9,3.03,18.02.96,27.16-7.79-2.34-15.7-3.53-23.84-2.29.44-6.93-3.16-12.56-6.41-18.09-8.1-13.78-18.91-17.19-33.05-10.94-1.16.51-2.93.72-3.07,2.16-.15,1.49,1.62,2.08,2.67,2.6,5.66,2.78,10.14,6.99,14.25,11.59,4.76,5.32,9.45,10.76,10.62,18.21-3.98,2.93-7.97,5.86-11.95,8.8-3.91-8.05-9.63-14.63-17.17-19.33-5.26-3.28-10.64-6.99-17.51-5.56Z"/>
      <path class="cls-1" d="M759.02,527.98c-7.58,7.07-11.84,15.83-13.29,26.03-1.41,4.31-1.36,8.63-.09,12.96.11,1,.22,2.01.33,3.01-8.95.82-16.84-2.32-24.23-6.86-2.88-1.77-5.57-2.73-8.8-1.5.16-.66.33-1.31.5-1.97.07-.76.14-1.51.22-2.27l-.1-.24s.16-.2.16-.2c.9.35,1.86.61,2.7,1.08,1.07.61,1.78,2.38,3.32,1.35,1.95-1.31-.23-2.53-.27-3.76-.29-8.36-2.84-16.73,1.56-25.04,1.43-2.7,3.51-6.33,1.71-10.05,3.55-6.54,7.95-12.36,14.17-16.63,5.85,2.65,11.58,5.18,15.57,10.84,2.93,4.16,3.83,9.12,6.54,13.26Z"/>
      <path class="cls-1" d="M791.29,506.85c12.45,13.28,13.39,36.86,2.05,50.55-3.73,4.5-8.44,7.47-14.16,8.41-8.42,1.38-13.84-4.98-11.46-13.15.23-.8.59-1.56.83-2.35.44-1.44,1.09-3.11-.68-3.96-1.98-.96-3.14.64-3.94,2.07-2.4,4.3-2.69,8.82-.98,13.47.94,2.55,2.58,4.62,4.29,6.67-4.97,1.43-10.12.94-15.18,1.4-2.1-10.09-1.14-19.82,3.45-29.1,1.71-3.46,4.01-6.51,7.15-8.83,4.18-3.09,8.82-4.31,13.56-1.87,4.98,2.57,6.45,7.51,7.04,12.71.17,1.45-1.32,3.75,1.44,3.81,2.09.05,2.3-2.13,2.44-3.76.64-7.55-1.76-13.71-8.44-17.81,2.62.2,3.9-1.65,4.8-3.56,1.69-3.56,3.05-7.27,4.64-10.88.68-1.54.58-3.81,3.15-3.82Z"/>
      <path class="cls-3" d="M791.29,506.85c-2.57.02-2.47,2.28-3.15,3.82-1.59,3.61-2.94,7.32-4.64,10.88-.91,1.9-2.18,3.76-4.8,3.56-7.11-2.8-13.56-1.09-19.69,2.88-2.71-4.14-3.61-9.1-6.54-13.26-3.98-5.65-9.72-8.18-15.57-10.84,16.46-14.65,42.43-13.24,54.39,2.96Z"/>
      <path class="cls-9" d="M752.06,569.95c5.06-.46,10.21.02,15.18-1.4,5.65,3.62,11.64,3.21,17.74,1.5.15.85.45,1.49,1.39,1.82,4.82,1.69,9.61,3.47,14.43,5.16,2.31.81,4.29,1.85,4.35,4.71-.64,3.18-3.86,4.38-5.31,6.94-.45.39-.9.78-1.35,1.17-.26.21-.51.42-.77.63-1.66,1.11-3.36,2.16-4.97,3.33-12.99,9.47-26.18,2.91-32.85-5.28-4.41-5.41-7.01-11.64-7.86-18.59Z"/>
      <path class="cls-13" d="M803.1,618.9c-5.56,5.07-12.74,5.47-19.52,5.91-8.08.52-16.22.29-24.38-.62-8.55-.95-17.15-1.42-25.58-3.23-3.07-.66-6.13-1.55-9.02-2.74-5.48-2.25-10.89-4.66-16.62-6.24,1.36-2.39,2.73-4.78,4.09-7.17,9.85,4.48,20.21,7.15,31,7.17,12.6.02,25.32.24,37.3-4.88,2.36-1.01,5.06-.31,6.53,1.18,4.68,4.76,10.91,6.95,16.22,10.62Z"/>
      <path class="cls-9" d="M712.94,561.63c3.23-1.23,5.92-.27,8.8,1.5,7.39,4.54,15.28,7.68,24.23,6.86,2.51,8.74,5.05,17.47,12.29,25.21-18.42-1.09-33.91-6.2-47.93-15.78-1.28-.87-1.67-1.92-1.27-3.41,1.32-4.78,2.58-9.58,3.87-14.37Z"/>
      <path class="cls-1" d="M741.08,494.28c-1.17-7.45-5.86-12.89-10.62-18.21-4.11-4.59-8.59-8.81-14.25-11.59-1.06-.52-2.82-1.11-2.67-2.6.14-1.45,1.91-1.65,3.07-2.16,14.14-6.25,24.94-2.84,33.05,10.94,3.25,5.53,6.85,11.15,6.41,18.09-5.18,1.34-10.09,3.4-14.97,5.53Z"/>
      <path class="cls-1" d="M805.16,581.75c-.06-2.86-2.04-3.9-4.35-4.71-4.82-1.7-9.61-3.47-14.43-5.16-.94-.33-1.24-.97-1.39-1.82,3.28-2.11,6.56-4.22,9.84-6.32.35.34.82,1.04,1.03.97,7.27-2.39,14.19-5.43,19.22-11.5,1.55-1.87.76-3.12-1.62-3.14-3.15-.02-6.31.17-9.32-1.03,1.71-6.25,2.25-12.64,2.16-19.09,5.37-1.11,10.86-1.99,13.95-7.39,2.96,20.56-.94,39.6-12.61,56.9-.63.93-1.21,2.03-2.48,2.31Z"/>
      <path class="cls-1" d="M694.45,478.19c6.87-1.43,12.25,2.28,17.51,5.56,7.54,4.7,13.25,11.28,17.17,19.33-5.94,6.56-11.59,13.34-15.23,21.7-1.95-7.13-2.61-14.32-5.77-20.83-2.39-9.74-7.92-17.81-13.67-25.77Z"/>
      <path class="cls-13" d="M689.14,601.97c-2.5-4.19-1.1-8.29.54-12.23,5.08-12.23,9.31-24.74,11.7-37.75,2.13-11.57,2.36-23.29.89-35.03-.43-3.42-.09-6.94-.1-10.42.3.09.57.24.8.45,9.06,30.24,5.5,59.39-7.55,87.73-.88,1.92-2.08,3.86-1.24,6.17-1.74.07-3.49.08-5.04,1.08Z"/>
      <path class="cls-9" d="M769.06,603.38c-19.6,2.75-39.16,4.69-57.47-6.04-6.71-3.93-7.92-7.08-5.68-11.78.88-1.84,1.62-2.11,3.31-.91,16.4,11.66,35,15.97,54.79,16.22,1.16.01,2.32.2,3.46.43.62.13,1.18.54,1.76.82-.06.42-.12.84-.18,1.25Z"/>
      <path class="cls-3" d="M792.06,472.57c6.92,4.74,12.16,10.97,16.13,18.3-3.57.67-5.22,3.65-7.28,6.12-1.65,1.97-2.91,4.4-5.78,4.93-2.44-2.2-4.87-4.39-7.31-6.59,4.81-6.95,4.3-14.9,4.25-22.76Z"/>
      <path class="cls-1" d="M792.06,472.57c.06,7.86.57,15.81-4.25,22.76-2.64-1.43-5.28-2.86-7.92-4.29,2.08-9.14.84-18.16-.96-27.16,4.84,2.2,9.29,4.98,13.13,8.7Z"/>
      <path class="cls-3" d="M820.25,522.54c-3.09,5.41-8.58,6.28-13.95,7.39-1.23-5.26-2.47-10.53-3.7-15.79,5.97-.82,8.56-6.25,12.83-9.39,2.44,5.7,4.09,11.62,4.82,17.79Z"/>
      <path class="cls-1" d="M815.43,504.75c-4.27,3.14-6.86,8.57-12.83,9.39-2.13-4.29-4.59-8.38-7.47-12.22,2.87-.53,4.13-2.95,5.78-4.93,2.06-2.47,3.71-5.44,7.28-6.12,3.29,4.16,5.65,8.81,7.24,13.87Z"/>
      <path class="cls-9" d="M689.14,601.97c1.54-.99,3.3-1,5.04-1.08,2.63,1.22,4.12-.34,5.03-2.39,1.37-3.09,2.48-2.27,4.42-.4,2.58,2.48,5.59,4.49,8.42,6.71-1.36,2.39-2.73,4.78-4.09,7.17-7.74-.58-15-2.07-18.82-10.01Z"/>
      <path class="cls-9" d="M602.28,643.76c.25,1.99,2.79,2.61,2.81,4.73-3.31.55-4.56-2.86-7.14-3.71-3.4-5.24-6.88-10.44-10.19-15.74-5.07-8.13-8.05-17.07-9.49-26.49-.23-1.48-1.38-3.83,1.59-4.37,1.7,18.04,10.27,32.69,22.43,45.59Z"/>
      <path class="cls-13" d="M722.74,520.51c1.8,3.72-.28,7.35-1.71,10.05-4.4,8.3-1.85,16.68-1.56,25.04.04,1.23,2.23,2.46.27,3.76-1.54,1.03-2.25-.74-3.32-1.35-.84-.47-1.79-.73-2.7-1.08.19-12.84.98-25.53,9.02-36.43Z"/>
      <path class="cls-2" d="M804.14,549.03c3.01,1.2,6.17,1.01,9.32,1.03,2.38.02,3.17,1.27,1.62,3.14-5.03,6.07-11.95,9.12-19.22,11.5-.22.07-.68-.63-1.03-.97,4.06-4.29,7.08-9.25,9.32-14.7Z"/>
      <path class="cls-9" d="M745.64,566.97c-1.27-4.33-1.31-8.65.09-12.96-.03,4.32-.06,8.64-.09,12.96Z"/>
      <path class="cls-9" d="M713.65,557.38c-.07.76-.14,1.51-.22,2.27-.59-.82-.43-1.57.22-2.27Z"/>
      <path class="cls-15" d="M638.09,460.05c-12.75-.58-25.24,1.41-37.75,3.57-5.46.95-11.17,1.76-15.29-3.92-1.37-1.88-2.25-3.55-2.01-5.8,4.48,6.79,11.04,5.25,17.22,3.9,11.83-2.57,23.71-3.09,35.75-2.27,4.22.29,4.45,1.59,2.09,4.51Z"/>
      <path class="cls-9" d="M537.89,537.93c4.6.16,9.32-.47,13.61,1.9,2.2,1.22,4.49,2.49,4.38,5.45-.1,2.7-2.19,3.83-4.34,4.91-4.22,2.11-8.64,1.95-13.12,1.48-.8-4.56-1.44-9.12-.53-13.75Z"/>
      <path class="cls-3" d="M569.05,467.05c3.03,3,2.7,8.38-.46,10.71-4.46,3.29-9.73,5.52-12.89,10.55-1.21,1.92-1.48,3.49-.76,5.44-1.88.48-3.76.96-6.52,1.67,3.85-8.51,9.24-14.94,14.92-21.16.3-.33,1-.77,1.22-.64,5.22,3.02,3.28-1.87,4.01-3.67.36-.89.33-1.93.48-2.9Z"/>
      <path class="cls-3" d="M556.1,504.45c-.41,3.81-2.33,6.2-5.99,6.13-3.09-.06-5.33-1.95-5.26-5.36.07-3.71,2.3-5.91,5.9-5.96,3.26-.04,4.92,2.21,5.36,5.19Z"/>
      <path class="cls-15" d="M577.77,415c-.7.13-.96,1.96-1.73.92-4.26-5.76-8.91-4.21-13.82-1.1-.94.6-2.14.79-3.21,1.16,1.06-5.66,4.32-8.82,9.35-9.06,5.01-.24,8.03,2.35,9.41,8.07Z"/>
      <path class="cls-15" d="M668.39,410.26c-.45.44-1.03,1.33-1.32,1.25-6.4-1.96-11.7,1.3-17.22,3.51.23-5.28,3.4-8.1,8.16-9.23,4.44-1.06,8.21-.01,10.37,4.48Z"/>
      <path class="cls-3" d="M569.18,458.2c1.39-.14,2.64-.02,2.65,1.79.01,1.8-1.24,1.96-2.63,1.85,0-1.21-.02-2.43-.03-3.64Z"/>
      <path class="cls-4" d="M798.5,589.86c.45-.39.9-.78,1.35-1.17-.45.39-.9.78-1.35,1.17Z"/>
      <path class="cls-13" d="M700.58,502.01c-.19-.37-.38-.74-.57-1.11.19.37.38.74.57,1.11Z"/>
      <path class="cls-9" d="M538.47,554.56c.08.58.15,1.16.23,1.74-.6-.51-.6-1.1-.23-1.74Z"/>
      <path class="cls-15" d="M805.6,190.77c4.13-.05,10.39.65,16.52,2.32,1.21.33,2.59.15,3.19,1.85,1.86,5.32-.5,15.59-4.84,19.23-9.95,8.35-21.24,13-34.45,11.07-8.76-1.28-14.2-6.77-14.94-14.32-.74-7.59,3.49-13.83,11.73-17.12,6.6-2.64,13.56-3.05,22.78-3.02Z"/>
      <path class="cls-15" d="M795.82,240.42c-.1,1.76.97,3.94-.79,5.14-1.89,1.29-3.74.13-5.45-1.1-1.88-1.35-3.82-1.98-5.74.17-1.85,2.08-4.12,2.25-6.78,1.53-2.24-.61-5.96,1.03-4.58-3.85.22-.77-.64-1.11-1.3-1.2-2.79-.37-2.12-2.47-2.17-4.21,8.71,2.88,17.49,5.25,26.81,3.53Z"/>
      <path class="cls-11" d="M306.06,502.93c5.44,5.27,11.01,10.43,14.09,17.59-.25,2.5.11,4.82,1.15,7.2,2.7,6.12,5.33,12.21,3.89,19.35-.57,2.81-1.18,6.22.91,9.04-1.6,4.1-4.94,6.46-8.51,8.63-6.1,3.7-13.39,4.53-19.49,8.2-.02-1-.21-2.03-.02-2.99,3.24-16.39-1.49-30.19-13.45-41.66,1.65-.96,1.86-2.76,2.19-4.3,2.17-10.35,7.82-17.68,17.97-21.25.42.06.85.12,1.27.18Z"/>
      <path class="cls-6" d="M306.06,502.93c-.42-.06-.85-.12-1.28-.18-.58-.61-1.15-1.22-1.73-1.83-.45-.27-.9-.53-1.34-.8-1.69-.18-2.95-1.25-4.37-2.03-13.74-7.53-32.19-4.55-42.35,6.79-11.56,12.75-14.89,31.77-8.02,46.45,3.47,7.42,8.82,12.91,16.95,15.08,8.95,2.39,15.36-4.04,13.02-12.93-.34-1.29-.81-2.53-1.16-3.82-.28-1.03-.17-2.02.95-2.5.83-.36,1.62-.08,2.32.46,1.38,1.06,2.09,2.56,2.74,4.1,2.82,6.68-.04,17.34-10.68,20.33-6.43.54-12.28-1.23-17.76-4.44-.35-.26-.7-.52-1.06-.78-.32-1-1.06-1.06-1.92-.89-4.07-4.91-7.35-10.31-9.96-16.12-1.46-5.86-2.34-11.79-2.42-17.84,1.3-5.65,2.6-11.3,3.9-16.95,2-4.21,4.29-8.26,7.04-12.04,2.78-2.51,5.57-5.02,8.35-7.54,3.62-1.68,7.24-3.37,10.85-5.05,7.21-1.76,14.48-2.01,21.81-.8,1.04.49,2.07.99,3.11,1.48.56.24,1.12.47,1.69.71.44.13.89.27,1.33.4.79,1.45,2.02,1.93,3.6,1.63,2.31,0,3.55,2.05,5.45,2.84,2.53,1.44,4.92,3.07,6.7,5.43-1.65,2.09-4.03-.75-5.75.84Z"/>
      <path class="cls-10" d="M298.1,572.94c6.1-3.67,13.4-4.5,19.49-8.2,3.58-2.17,6.91-4.54,8.51-8.63.64-.37,1.28-.75,1.92-1.12.43-.05.86-.1,1.29-.15,1.48,7.36,2.04,14.95,5.05,21.94,1.28,2.96-1.51,3.53-2.53,5.15-4.28,2.34-8.56,4.67-12.84,7.01-.76.32-1.52.63-2.28.95-.6.2-1.19.4-1.79.61-.31.16-.62.32-.93.48,0,0,0,0,0,0-2.92.89-5.84,1.78-8.76,2.67-5.72,2.03-11.73,1.69-17.82,2.4,5.82-6.87,8.41-14.91,10.66-23.09Z"/>
      <path class="cls-6" d="M298.1,572.94c-2.25,8.19-4.84,16.22-10.66,23.09,6.09-.71,12.1-.37,17.82-2.4,1.84.81,5.26-.59,4.81,3.43-6.25,2.58-12.71,4.2-19.53,4.04l-2.32.26c-2.39.13-4.78.25-7.17.38.19-2.37-1.39-4.11-2.18-6.13,6.9-5.71,11.4-12.87,13.08-21.72,2.68-8.88,2.05-17.7-.65-26.44-1.69-5.47-4.29-10.44-8.9-14.09-4.17-3.3-8.88-5.03-13.88-2.61-5.25,2.55-7.23,7.46-7.52,13.12-.08,1.46,1.38,3.82-1.16,4.06-2.3.21-2.59-2.19-2.76-4-.7-7.41,2.13-13.24,8.06-17.64,6.9-3.26,13.3-1.66,19.49,1.99,11.96,11.47,16.69,25.27,13.45,41.66-.19.96,0,1.99.02,2.99Z"/>
      <path class="cls-10" d="M290.54,601.1c6.82.16,13.27-1.46,19.53-4.04,1.47.05,2.76-.47,3.97-1.24,6.94-2.03,13.45-4.9,19.11-9.5,1.39.1,2.62-3.15,4.03-.43,1.15,2.23,3,4.63.57,7.29-2.95,3.24-6.38,5.9-10.38,7.61-16.19,6.88-32.96,6.75-49.92,3.78-.56-.1-1.06-.59-2.07-1.18,2.22-.65,3.94-1.15,5.67-1.65,2.39-.13,4.78-.25,7.17-.38.82.35,1.59.23,2.32-.26Z"/>
      <path class="cls-6" d="M333.15,586.33c-5.66,4.6-12.18,7.47-19.11,9.5,0-1.62-.01-3.24-.02-4.86,0,0,0,0,0,0,.31-.16.62-.32.93-.48.6-.2,1.19-.4,1.79-.61.93.09,1.78,0,2.28-.95,4.28-2.34,8.56-4.67,12.84-7.01,3.65.52.61,3.01,1.3,4.4Z"/>
      <path class="cls-8" d="M328.03,554.99c-.64.37-1.28.74-1.92,1.12-2.1-2.82-1.48-6.23-.91-9.04,1.43-7.15-1.2-13.23-3.89-19.35-1.05-2.38-1.4-4.7-1.15-7.2,6.39,8.79,8.6,18.82,8.76,29.46-1.47,1.46-.68,3.32-.88,5.01Z"/>
      <path class="cls-7" d="M313.09,611.57c-2.08.91-4.29.69-6.47.75-3.31-.12-6.63-.19-9.94-.38-1.81-.1-4.26-.19-4.24-2.42.02-2.44,2.56-1.52,4-1.49,4.5.09,8.82-1.3,13.35-1.16,3.19.1,4.7.99,4.39,4.25,0,0,0-.03,0-.04-.36.16-.72.33-1.08.49Z"/>
      <path class="cls-11" d="M328.03,554.99c.2-1.69-.59-3.54.88-5.01.14,1.62.27,3.24.41,4.85-.43.05-.86.1-1.29.15Z"/>
      <path class="cls-16" d="M647.07,244.34c1.21-.16,1.69.46,1.79,1.34.12,1.03-.09,2.05-1.39,2.12-.66.04-1.23-.4-1.33-1.16-.14-1.01-.16-1.98.93-2.3Z"/>
      <path class="cls-3" d="M466.22,595.07c-1.8,11.69-3.93,23.28-10.37,33.53-3.45,5.5-7.59,10.46-12.07,15.13-11.78,1.93-23.58,3.23-35.58,3.56-8.29.23-16.52-.24-24.78-.3-1.59-.01-3.92.96-4.32-1.95,5.36-4.12,10.43-8.52,14.42-14.06.88-1.22,1.9-2.3,1.54-3.96,0,0,0-.01,0-.01.36-.01.71-.02,1.07-.04,4.41-5.27,7.96-10.96,8.89-17.95,2.4-5.76,4.33-11.77,7.29-17.22,6.63-12.2,15.91-21.32,30.8-21.74,13.67-.39,22.62,8.69,22.94,22.54.02.83.11,1.65.17,2.48Z"/>
      <path class="cls-7" d="M368.52,536.91c-7.06-6.62-9.72-14.83-8.18-24.23,1.92-11.79,11.81-19.11,24.54-18.58,10.82.45,20.1,9.66,21.11,20.95,1.1,12.26-6.23,22.98-17.49,25.55-1.45.33-2.94.51-4.41.76-5.47-.49-10.45-2.72-15.57-4.45ZM392.29,499.83c-3.51.21-6.06,1.77-6.38,5.55-.33,3.84,2.02,6,5.55,6.33,3.64.35,6.16-1.65,6.46-5.38.3-3.75-2.02-5.73-5.63-6.5Z"/>
      <path class="cls-9" d="M368.52,536.91c5.12,1.72,10.1,3.95,15.57,4.45,1.76,6.56.17,9.12-6.92,10.71-6.29,1.42-12.18.14-17.24-3.72-4.21-3.21-3.74-6.86,1.03-9.21,2.32-1.14,5.02-1.51,7.56-2.23Z"/>
      <path class="cls-4" d="M457.96,526.77c.02,8.74-6.61,13.44-14.03,10.11-2.43-1.09-4.21-.82-6.5.14-7.09,2.97-14.83-1.19-16.13-8.47-.33-1.82-.63-3.93,1.62-4.67,2.17-.72,2.67,1.28,3.4,2.77,3.32,6.71,4.89,7.32,12.11,4.32,2.3-.95,4.09-.32,6.11.69,4.97,2.49,7.3,1.31,8.57-4.13.08-.32.05-.67.16-.98.49-1.5.33-3.78,2.6-3.63,2.71.18,1.79,2.66,2.09,3.85Z"/>
      <path class="cls-11" d="M405.01,609.02c-.93,6.99-4.48,12.69-8.89,17.95-.05-.38-.1-.76-.15-1.14,2.4-5.94,5.77-11.35,9.04-16.82Z"/>
      <path class="cls-12" d="M395.96,625.83c.05.38.1.76.15,1.14-.36.01-.71.02-1.07.04.31-.39.61-.78.92-1.17Z"/>
      <path class="cls-4" d="M313.09,611.57c.36-.16.72-.33,1.08-.49-.36.16-.72.33-1.08.49Z"/>
      <path class="cls-11" d="M265.14,526.3c-5.92,4.4-8.76,10.23-8.06,17.64.17,1.82.46,4.22,2.76,4,2.53-.24,1.08-2.6,1.16-4.06.3-5.66,2.27-10.58,7.52-13.12,5-2.42,9.71-.7,13.88,2.61,4.61,3.65,7.21,8.62,8.9,14.09,2.7,8.73,3.33,17.55.65,26.44-5.65.03-11.31.09-16.96.05-1.53,0-3.53.63-3.89-1.91,10.64-2.99,13.51-13.65,10.68-20.33-.65-1.54-1.37-3.04-2.74-4.1-.7-.54-1.49-.82-2.32-.46-1.11.48-1.23,1.47-.95,2.5.35,1.28.82,2.53,1.16,3.82,2.34,8.89-4.07,15.32-13.02,12.93-8.13-2.17-13.48-7.65-16.95-15.08-6.86-14.68-3.54-33.7,8.02-46.45,1.99,7.8,4.84,15.19,10.15,21.42Z"/>
      <path class="cls-14" d="M240.41,549.81c2.61,5.81,5.88,11.21,9.96,16.12-8.8-3.09-17.03-6.94-21.45-15.92,3.83-.07,7.66-.13,11.49-.2Z"/>
      <path class="cls-14" d="M252.29,566.82c.35.26.7.52,1.06.78-.48.59-.97,1.58-1.8.66-.51-.57.2-1.1.75-1.44Z"/>
      <path class="cls-11" d="M296.06,492.19c-.44-.13-.89-.27-1.33-.4-.56-.24-1.12-.47-1.68-.71-1.04-.49-2.07-.99-3.11-1.48.25-1.3.44-2.61.76-3.89,3.03-11.89,10.17-21.02,19.39-28.74,8.54-.18,16.56,1.66,23.96,6.02-11.93,6.64-22.05,15.03-27.56,28-.78,1.84-1.68,3.59-1.39,5.67-1.9-.79-3.14-2.84-5.45-2.84-.97-1.04-2.19-1.55-3.6-1.63Z"/>
      <path class="cls-14" d="M310.1,456.97c-9.22,7.72-16.36,16.85-19.39,28.74-.33,1.28-.51,2.59-.76,3.89-7.32-1.21-14.59-.96-21.81.8-.95-9.36-.93-18.62,2.96-27.46,4.97.13,9.88.12,13.51-4.16.4-.47,1.13-.85,1.73-.9,7.9-.71,15.75-2.9,23.75-.91Z"/>
      <path class="cls-3" d="M602.28,643.76c-12.16-12.89-20.73-27.55-22.43-45.59.56-3.57-.63-7-.2-10.75,1.28-11.14,13.89-20.41,26.41-17.61,16.21,3.62,23.77,14.87,28.98,29.07,1.75,4.77,2.57,9.96,5.83,14.12,2.14,6.94,5.9,12.9,10.97,18.06.37-.02.75-.04,1.12-.07h0c.27,3.81,2.88,5.63,6,7,0,0,0,0,0,0,1.15,2.19,3.16,3.51,5.02,4.99-.13,1.43-1,1.92-2.34,2-17.33,1.04-34.65,2.4-51.93-.76-2.42-.44-4.95-.31-7.43-.45Z"/>
      <path class="cls-7" d="M658.94,541.13c-16.49-3.28-24.84-16.23-20.18-31.28,2.99-9.65,10.35-15.52,20-15.93,9.96-.42,19.38,5.41,22.99,14.22.44,1.07.83,2.16,1.24,3.24.1,6.76.15,13.51-3.64,19.55-1.53,1.64-3.06,3.28-4.6,4.92-4.79,3.21-10.09,4.9-15.82,5.28ZM651.09,499.58c-3.27.57-5.69,2.44-5.62,6.12.07,3.65,2.29,5.83,6.05,5.69,3.67-.14,5.88-2.29,5.86-5.98-.02-3.76-2.43-5.53-6.29-5.84Z"/>
      <path class="cls-9" d="M658.94,541.13c5.73-.38,11.03-2.08,15.82-5.28,1.66,2.01,4.22,1.62,6.34,2.4,2.55.94,5.09,2.22,5.62,5.15.59,3.21-2.05,4.91-4.25,6.16-5.8,3.29-12.15,3.51-18.33,1.41-5.55-1.89-6.47-4.18-5.21-9.83Z"/>
      <path class="cls-4" d="M609.76,537.93c-4.21-2.6-8.99-.66-13.99.07-6.81.99-11.18-6.89-9.53-13.65.24-.99,1.04-1.74,2.21-1.63.91.08,1.49.68,1.69,1.58.28,1.3.48,2.62.8,3.9,1.11,4.46,3.71,5.95,7.68,3.81,3.05-1.64,5.48-2.09,8.73-.21,3.82,2.2,7.17.28,9.46-4.45.86-1.78.96-5.06,3.97-3.89,3.26,1.27,1.86,4.32.88,6.46-2.14,4.69-5.75,7.64-11.9,8Z"/>
      <path class="cls-3" d="M679.36,530.93c3.78-6.04,3.74-12.79,3.64-19.55,3.86-1.04,5.09.76,4.99,4.38-.17,6.13-4.57,14.03-8.63,15.17Z"/>
      <path class="cls-9" d="M663.98,642.98c-1.86-1.47-3.87-2.8-5.02-4.99,2.79-.59,3.89,1.91,5.71,3.1,3.65,2.37,6.97,5.31,11.25,6.6,4.21,3.76,9.72,4.62,14.73,6.6,1.81.71,3.66,1.3,5.34,2.32-12.08-1.19-22.36-6.68-32.01-13.64Z"/>
      <path class="cls-13" d="M651.84,631.07c-5.07-5.16-8.83-11.12-10.97-18.06,4.94,4.71,7.42,11.08,11.17,16.59-.07.49-.13.98-.2,1.47Z"/>
      <path class="cls-9" d="M658.96,638c-3.13-1.37-5.74-3.18-6-7,2.52,1.89,5.46,3.42,6,7Z"/>
      <path class="cls-9" d="M651.84,631.07c.07-.49.13-.97.2-1.47.31.46.62.93.93,1.4-.37.02-.75.04-1.12.07Z"/>
      <path class="cls-14" d="M265.14,526.3c-5.31-6.23-8.16-13.62-10.15-21.42,10.16-11.34,28.61-14.31,42.35-6.79,1.42.78,2.68,1.85,4.37,2.03.45.27.9.53,1.34.8.58.61,1.15,1.22,1.73,1.83-10.14,3.57-15.79,10.9-17.96,21.25-.32,1.53-.54,3.34-2.19,4.3-6.19-3.65-12.59-5.25-19.49-1.99Z"/>
      <path class="cls-4" d="M296.06,492.19c1.41.08,2.62.59,3.6,1.63-1.58.3-2.81-.18-3.6-1.63Z"/>
      <path class="cls-4" d="M293.05,491.08c.56.24,1.12.47,1.68.71-.56-.24-1.12-.47-1.68-.71Z"/>
      <path class="cls-4" d="M303.06,500.92c-.45-.27-.9-.53-1.34-.8.45.27.9.53,1.34.8Z"/>
      <path class="cls-4" d="M314.02,590.97c0,1.62.01,3.24.02,4.86-1.21.77-2.5,1.29-3.97,1.24.45-4.02-2.97-2.62-4.81-3.43,2.92-.89,5.84-1.78,8.76-2.67Z"/>
      <path class="cls-4" d="M319.01,588.93c-.49.95-1.35,1.04-2.28.95.76-.32,1.52-.63,2.28-.95Z"/>
      <path class="cls-4" d="M314.95,590.49c-.31.16-.62.32-.93.48.31-.16.62-.32.93-.48Z"/>
      <path class="cls-4" d="M290.54,601.1c-.73.49-1.5.61-2.32.26.77-.09,1.55-.17,2.32-.26Z"/>
      <path class="cls-3" d="M392.29,499.83c3.61.77,5.93,2.75,5.63,6.5-.3,3.73-2.82,5.73-6.46,5.38-3.53-.34-5.88-2.49-5.55-6.33.32-3.78,2.87-5.34,6.38-5.55Z"/>
      <path class="cls-15" d="M651.09,499.58c3.86.3,6.27,2.08,6.29,5.84.02,3.68-2.19,5.84-5.86,5.98-3.76.14-5.98-2.04-6.05-5.69-.07-3.68,2.35-5.55,5.62-6.12Z"/>
    </g>
  </g>
</svg>